<svg version="1.1" xmlns="http://www.w3.org/2000/svg" xmlns:xlink="http://www.w3.org/1999/xlink" width="1731" height="1166"><defs/><g><g transform="translate(-6,-30) scale(1,1)"><path fill="#ffffff" stroke="none" d="M 688.4093503196023 353.68 C 688.4093503196023 348.886167936 692.2951926445477 345 697.088623046875 345 C 701.8820534492023 345 705.7678957741477 348.886167936 705.7678957741477 353.68 C 705.7678957741477 358.473832064 701.8820534492023 362.36 697.088623046875 362.36 C 692.2951926445477 362.36 688.4093503196023 358.473832064 688.4093503196023 353.68 Z"/></g><g transform="translate(-6,-30) scale(1,1)"><path fill="none" stroke="#000000" d="M 688.4093503196023 353.68 C 688.4093503196023 348.886167936 692.2951926445477 345 697.088623046875 345 C 701.8820534492023 345 705.7678957741477 348.886167936 705.7678957741477 353.68 C 705.7678957741477 358.473832064 701.8820534492023 362.36 697.088623046875 362.36 C 692.2951926445477 362.36 688.4093503196023 358.473832064 688.4093503196023 353.68 Z" stroke-miterlimit="10"/></g><g transform="translate(-6,-30) scale(1,1)"><path fill="none" stroke="#000000" d="M 697.088623046875 362.36 L 697.088623046875 379.64" stroke-miterlimit="10"/></g><g transform="translate(-6,-30) scale(1,1)"><path fill="none" stroke="#000000" d="M 687.8988048650568 368.84 L 706.2784412286932 368.84" stroke-miterlimit="10"/></g><g transform="translate(-6,-30) scale(1,1)"><path fill="none" stroke="#000000" d="M 697.088623046875 379.64 L 684.3249866832386 397" stroke-miterlimit="10"/></g><g transform="translate(-6,-30) scale(1,1)"><path fill="none" stroke="#000000" d="M 697.088623046875 379.64 L 709.8522594105114 397" stroke-miterlimit="10"/></g><g transform="translate(-6,-30) scale(1,1)"><g><path fill="none" stroke="none"/><text fill="#000000" stroke="none" font-family="Arial" font-size="13px" font-style="normal" font-weight="bold" text-decoration="none" x="683.364990234375" y="417.5">User</text></g></g><g transform="translate(-6,-30) scale(1,1)"><path fill="#C0C0C0" stroke="none" d="M 983 216 C 983 206.6111584 1012.5492032 199 1049 199 C 1085.4507968 199 1115 206.6111584 1115 216 C 1115 225.3888416 1085.4507968 233 1049 233 C 1012.5492032 233 983 225.3888416 983 216 Z" opacity="0.2"/></g><g transform="translate(-6,-30) scale(1,1)"><path fill="#ffffff" stroke="none" d="M 976 209 C 976 199.6111584 1005.5492032 192 1042 192 C 1078.4507968 192 1108 199.6111584 1108 209 C 1108 218.3888416 1078.4507968 226 1042 226 C 1005.5492032 226 976 218.3888416 976 209 Z"/></g><g transform="translate(-6,-30) scale(1,1)"><path fill="none" stroke="#000000" d="M 976 209 C 976 199.6111584 1005.5492032 192 1042 192 C 1078.4507968 192 1108 199.6111584 1108 209 C 1108 218.3888416 1078.4507968 226 1042 226 C 1005.5492032 226 976 218.3888416 976 209 Z" stroke-miterlimit="10"/></g><g transform="translate(-6,-30) scale(1,1)"><g><path fill="none" stroke="none"/><text fill="#000000" stroke="none" font-family="Arial" font-size="13px" font-style="normal" font-weight="bold" text-decoration="none" x="1002.619140625" y="216">Quản lý đại lý</text></g></g><g transform="translate(-6,-30) scale(1,1)"><path fill="#C0C0C0" stroke="none" d="M 511 224 C 511 214.6111584 549.2796496 207 596.5 207 C 643.7203504 207 682 214.6111584 682 224 C 682 233.3888416 643.7203504 241 596.5 241 C 549.2796496 241 511 233.3888416 511 224 Z" opacity="0.2"/></g><g transform="translate(-6,-30) scale(1,1)"><path fill="#ffffff" stroke="none" d="M 504 217 C 504 207.6111584 542.2796496 200 589.5 200 C 636.7203504 200 675 207.6111584 675 217 C 675 226.3888416 636.7203504 234 589.5 234 C 542.2796496 234 504 226.3888416 504 217 Z"/></g><g transform="translate(-6,-30) scale(1,1)"><path fill="none" stroke="#000000" d="M 504 217 C 504 207.6111584 542.2796496 200 589.5 200 C 636.7203504 200 675 207.6111584 675 217 C 675 226.3888416 636.7203504 234 589.5 234 C 542.2796496 234 504 226.3888416 504 217 Z" stroke-miterlimit="10"/></g><g transform="translate(-6,-30) scale(1,1)"><g><path fill="none" stroke="none"/><text fill="#000000" stroke="none" font-family="Arial" font-size="13px" font-style="normal" font-weight="bold" text-decoration="none" x="536.747802734375" y="224">Quản lý sản phẩm</text></g></g><g transform="translate(-6,-30) scale(1,1)"><path fill="#C0C0C0" stroke="none" d="M 399 776 C 399 766.6111584 441.0852288 759 493 759 C 544.9147712 759 587 766.6111584 587 776 C 587 785.3888416 544.9147712 793 493 793 C 441.0852288 793 399 785.3888416 399 776 Z" opacity="0.2"/></g><g transform="translate(-6,-30) scale(1,1)"><path fill="#ffffff" stroke="none" d="M 392 769 C 392 759.6111584 434.0852288 752 486 752 C 537.9147712 752 580 759.6111584 580 769 C 580 778.3888416 537.9147712 786 486 786 C 434.0852288 786 392 778.3888416 392 769 Z"/></g><g transform="translate(-6,-30) scale(1,1)"><path fill="none" stroke="#000000" d="M 392 769 C 392 759.6111584 434.0852288 752 486 752 C 537.9147712 752 580 759.6111584 580 769 C 580 778.3888416 537.9147712 786 486 786 C 434.0852288 786 392 778.3888416 392 769 Z" stroke-miterlimit="10"/></g><g transform="translate(-6,-30) scale(1,1)"><g><path fill="none" stroke="none"/><text fill="#000000" stroke="none" font-family="Arial" font-size="13px" font-style="normal" font-weight="bold" text-decoration="none" x="428.176025390625" y="776">Thống kê doanh thu</text></g></g><g transform="translate(-6,-30) scale(1,1)"><path fill="#C0C0C0" stroke="none" d="M 279 352 C 279 342.6111584 341.9039856 335 419.5 335 C 497.0960144 335 560 342.6111584 560 352 C 560 361.3888416 497.0960144 369 419.5 369 C 341.9039856 369 279 361.3888416 279 352 Z" opacity="0.2"/></g><g transform="translate(-6,-30) scale(1,1)"><path fill="#ffffff" stroke="none" d="M 272 345 C 272 335.6111584 334.9039856 328 412.5 328 C 490.0960144 328 553 335.6111584 553 345 C 553 354.3888416 490.0960144 362 412.5 362 C 334.9039856 362 272 354.3888416 272 345 Z"/></g><g transform="translate(-6,-30) scale(1,1)"><path fill="none" stroke="#000000" d="M 272 345 C 272 335.6111584 334.9039856 328 412.5 328 C 490.0960144 328 553 335.6111584 553 345 C 553 354.3888416 490.0960144 362 412.5 362 C 334.9039856 362 272 354.3888416 272 345 Z" stroke-miterlimit="10"/></g><g transform="translate(-6,-30) scale(1,1)"><g><path fill="none" stroke="none"/><text fill="#000000" stroke="none" font-family="Arial" font-size="13px" font-style="normal" font-weight="bold" text-decoration="none" x="323.60107421875" y="352">Quản lý nguồn nhập sản phẩm</text></g></g><g transform="translate(-6,-30) scale(1,1)"><path fill="none" stroke="#000000" d="M 723 370 L 1006 227" stroke-miterlimit="10"/></g><g transform="translate(-6,-30) scale(1,1)"><path fill="none" stroke="#000000" d="M 671 343 L 601 235" stroke-miterlimit="10"/></g><g transform="translate(-6,-30) scale(1,1)"><path fill="none" stroke="#000000" d="M 671 380 L 547 363" stroke-miterlimit="10"/></g><g transform="translate(-6,-30) scale(1,1)"><path fill="none" stroke="#000000" d="M 675 424 L 496 751" stroke-miterlimit="10"/></g><g transform="translate(-6,-30) scale(1,1)"><path fill="#C0C0C0" stroke="none" d="M 1031 80 C 1031 70.6111584 1063.6832096 63 1104 63 C 1144.3167904 63 1177 70.6111584 1177 80 C 1177 89.3888416 1144.3167904 97 1104 97 C 1063.6832096 97 1031 89.3888416 1031 80 Z" opacity="0.2"/></g><g transform="translate(-6,-30) scale(1,1)"><path fill="#ffffff" stroke="none" d="M 1024 73 C 1024 63.6111584 1056.6832096 56 1097 56 C 1137.3167904 56 1170 63.6111584 1170 73 C 1170 82.3888416 1137.3167904 90 1097 90 C 1056.6832096 90 1024 82.3888416 1024 73 Z"/></g><g transform="translate(-6,-30) scale(1,1)"><path fill="none" stroke="#000000" d="M 1024 73 C 1024 63.6111584 1056.6832096 56 1097 56 C 1137.3167904 56 1170 63.6111584 1170 73 C 1170 82.3888416 1137.3167904 90 1097 90 C 1056.6832096 90 1024 82.3888416 1024 73 Z" stroke-miterlimit="10"/></g><g transform="translate(-6,-30) scale(1,1)"><g><path fill="none" stroke="none"/><text fill="#000000" stroke="none" font-family="Arial" font-size="13px" font-style="normal" font-weight="bold" text-decoration="none" x="1052.794921875" y="80">Tiếp nhận đại lí</text></g></g><g transform="translate(-6,-30) scale(1,1)"><path fill="#C0C0C0" stroke="none" d="M 1247 112 C 1247 102.6111584 1269.6096176 95 1297.5 95 C 1325.3903824 95 1348 102.6111584 1348 112 C 1348 121.3888416 1325.3903824 129 1297.5 129 C 1269.6096176 129 1247 121.3888416 1247 112 Z" opacity="0.2"/></g><g transform="translate(-6,-30) scale(1,1)"><path fill="#ffffff" stroke="none" d="M 1240 105 C 1240 95.6111584 1262.6096176 88 1290.5 88 C 1318.3903824 88 1341 95.6111584 1341 105 C 1341 114.3888416 1318.3903824 122 1290.5 122 C 1262.6096176 122 1240 114.3888416 1240 105 Z"/></g><g transform="translate(-6,-30) scale(1,1)"><path fill="none" stroke="#000000" d="M 1240 105 C 1240 95.6111584 1262.6096176 88 1290.5 88 C 1318.3903824 88 1341 95.6111584 1341 105 C 1341 114.3888416 1318.3903824 122 1290.5 122 C 1262.6096176 122 1240 114.3888416 1240 105 Z" stroke-miterlimit="10"/></g><g transform="translate(-6,-30) scale(1,1)"><g><path fill="none" stroke="none"/><text fill="#000000" stroke="none" font-family="Arial" font-size="13px" font-style="normal" font-weight="bold" text-decoration="none" x="1261.95458984375" y="112">Xóa đại lý</text></g></g><g transform="translate(-6,-30) scale(1,1)"><path fill="#C0C0C0" stroke="none" d="M 1271 248 C 1271 238.6111584 1312.1897984 231 1363 231 C 1413.8102016 231 1455 238.6111584 1455 248 C 1455 257.3888416 1413.8102016 265 1363 265 C 1312.1897984 265 1271 257.3888416 1271 248 Z" opacity="0.2"/></g><g transform="translate(-6,-30) scale(1,1)"><path fill="#ffffff" stroke="none" d="M 1264 241 C 1264 231.6111584 1305.1897984 224 1356 224 C 1406.8102016 224 1448 231.6111584 1448 241 C 1448 250.3888416 1406.8102016 258 1356 258 C 1305.1897984 258 1264 250.3888416 1264 241 Z"/></g><g transform="translate(-6,-30) scale(1,1)"><path fill="none" stroke="#000000" d="M 1264 241 C 1264 231.6111584 1305.1897984 224 1356 224 C 1406.8102016 224 1448 231.6111584 1448 241 C 1448 250.3888416 1406.8102016 258 1356 258 C 1305.1897984 258 1264 250.3888416 1264 241 Z" stroke-miterlimit="10"/></g><g transform="translate(-6,-30) scale(1,1)"><g><path fill="none" stroke="none"/><text fill="#000000" stroke="none" font-family="Arial" font-size="13px" font-style="normal" font-weight="bold" text-decoration="none" x="1299.9755859375" y="248">Sửa thông tin đại lý</text></g></g><g transform="translate(-6,-30) scale(1,1)"><path fill="none" stroke="#000000" d="M 1049 191 L 1090 91" stroke-miterlimit="10" stroke-dasharray="3"/></g><g transform="translate(-6,-30) scale(1,1)"><path fill="none" stroke="#000000" d="M 1090.03962027141 101.99992864677282 L 1090 91 L 1082.2498916238853 98.80613990128768" stroke-miterlimit="10"/></g><g transform="translate(-6,-30) scale(1,1)"><g><path fill="none" stroke="none"/><text fill="#000000" stroke="none" font-family="Arial" font-size="13px" font-style="normal" font-weight="normal" text-decoration="none" x="1026.5" y="146.5">«include»</text></g></g><g transform="translate(-6,-30) scale(1,1)"><path fill="none" stroke="#000000" d="M 1085 191 L 1247 123" stroke-miterlimit="10" stroke-dasharray="3"/></g><g transform="translate(-6,-30) scale(1,1)"><path fill="none" stroke="#000000" d="M 1239.2586170994762 130.81479307387454 L 1247 123 L 1236.0001224791718 123.05190883138438" stroke-miterlimit="10"/></g><g transform="translate(-6,-30) scale(1,1)"><g><path fill="none" stroke="none"/><text fill="#000000" stroke="none" font-family="Arial" font-size="13px" font-style="normal" font-weight="normal" text-decoration="none" x="1133.5" y="152.5">«include»</text></g></g><g transform="translate(-6,-30) scale(1,1)"><path fill="none" stroke="#000000" d="M 1109 216 L 1263 232" stroke-miterlimit="10" stroke-dasharray="3"/></g><g transform="translate(-6,-30) scale(1,1)"><path fill="none" stroke="#000000" d="M 1252.456724080821 235.1367710933471 L 1263 232 L 1253.3267459904919 226.7628102127633" stroke-miterlimit="10"/></g><g transform="translate(-6,-30) scale(1,1)"><g><path fill="none" stroke="none"/><text fill="#000000" stroke="none" font-family="Arial" font-size="13px" font-style="normal" font-weight="normal" text-decoration="none" x="1175.5" y="216.5">«include»</text></g></g><g transform="translate(-6,-30) scale(1,1)"><path fill="#C0C0C0" stroke="none" d="M 1055 344 C 1055 334.6111584 1084.5492032 327 1121 327 C 1157.4507968 327 1187 334.6111584 1187 344 C 1187 353.3888416 1157.4507968 361 1121 361 C 1084.5492032 361 1055 353.3888416 1055 344 Z" opacity="0.2"/></g><g transform="translate(-6,-30) scale(1,1)"><path fill="#ffffff" stroke="none" d="M 1048 337 C 1048 327.6111584 1077.5492032 320 1114 320 C 1150.4507968 320 1180 327.6111584 1180 337 C 1180 346.3888416 1150.4507968 354 1114 354 C 1077.5492032 354 1048 346.3888416 1048 337 Z"/></g><g transform="translate(-6,-30) scale(1,1)"><path fill="none" stroke="#000000" d="M 1048 337 C 1048 327.6111584 1077.5492032 320 1114 320 C 1150.4507968 320 1180 327.6111584 1180 337 C 1180 346.3888416 1150.4507968 354 1114 354 C 1077.5492032 354 1048 346.3888416 1048 337 Z" stroke-miterlimit="10"/></g><g transform="translate(-6,-30) scale(1,1)"><g><path fill="none" stroke="none"/><text fill="#000000" stroke="none" font-family="Arial" font-size="13px" font-style="normal" font-weight="bold" text-decoration="none" x="1074.489013671875" y="344">Tra cứu đại lý</text></g></g><g transform="translate(-6,-30) scale(1,1)"><path fill="none" stroke="#000000" d="M 1052 227 L 1104 319" stroke-miterlimit="10" stroke-dasharray="3"/></g><g transform="translate(-6,-30) scale(1,1)"><path fill="none" stroke="#000000" d="M 1095.3347323618295 312.22407668587704 L 1104 319 L 1102.6640318164698 308.08142916803695" stroke-miterlimit="10"/></g><g transform="translate(-6,-30) scale(1,1)"><g><path fill="none" stroke="none"/><text fill="#000000" stroke="none" font-family="Arial" font-size="13px" font-style="normal" font-weight="normal" text-decoration="none" x="1026.5" y="298.5">«include»</text></g></g><g transform="translate(-6,-30) scale(1,1)"><path fill="#C0C0C0" stroke="none" d="M 927 472 C 927 462.6111584 961.0263552 455 1003 455 C 1044.9736448 455 1079 462.6111584 1079 472 C 1079 481.3888416 1044.9736448 489 1003 489 C 961.0263552 489 927 481.3888416 927 472 Z" opacity="0.2"/></g><g transform="translate(-6,-30) scale(1,1)"><path fill="#ffffff" stroke="none" d="M 920 465 C 920 455.6111584 954.0263552 448 996 448 C 1037.9736448 448 1072 455.6111584 1072 465 C 1072 474.3888416 1037.9736448 482 996 482 C 954.0263552 482 920 474.3888416 920 465 Z"/></g><g transform="translate(-6,-30) scale(1,1)"><path fill="none" stroke="#000000" d="M 920 465 C 920 455.6111584 954.0263552 448 996 448 C 1037.9736448 448 1072 455.6111584 1072 465 C 1072 474.3888416 1037.9736448 482 996 482 C 954.0263552 482 920 474.3888416 920 465 Z" stroke-miterlimit="10"/></g><g transform="translate(-6,-30) scale(1,1)"><g><path fill="none" stroke="none"/><text fill="#000000" stroke="none" font-family="Arial" font-size="13px" font-style="normal" font-weight="bold" text-decoration="none" x="950.465087890625" y="472">Lập phiếu đại lý</text></g></g><g transform="translate(-6,-30) scale(1,1)"><path fill="#C0C0C0" stroke="none" d="M 1159 552 C 1159 542.6111584 1201.7568016 535 1254.5 535 C 1307.2431984 535 1350 542.6111584 1350 552 C 1350 561.3888416 1307.2431984 569 1254.5 569 C 1201.7568016 569 1159 561.3888416 1159 552 Z" opacity="0.2"/></g><g transform="translate(-6,-30) scale(1,1)"><path fill="#ffffff" stroke="none" d="M 1152 545 C 1152 535.6111584 1194.7568016 528 1247.5 528 C 1300.2431984 528 1343 535.6111584 1343 545 C 1343 554.3888416 1300.2431984 562 1247.5 562 C 1194.7568016 562 1152 554.3888416 1152 545 Z"/></g><g transform="translate(-6,-30) scale(1,1)"><path fill="none" stroke="#000000" d="M 1152 545 C 1152 535.6111584 1194.7568016 528 1247.5 528 C 1300.2431984 528 1343 535.6111584 1343 545 C 1343 554.3888416 1300.2431984 562 1247.5 562 C 1194.7568016 562 1152 554.3888416 1152 545 Z" stroke-miterlimit="10"/></g><g transform="translate(-6,-30) scale(1,1)"><g><path fill="none" stroke="none"/><text fill="#000000" stroke="none" font-family="Arial" font-size="13px" font-style="normal" font-weight="bold" text-decoration="none" x="1188.58740234375" y="552">Lập phiếu xuất hàng</text></g></g><g transform="translate(-6,-30) scale(1,1)"><path fill="#C0C0C0" stroke="none" d="M 927 624 C 927 614.6111584 965.2796496 607 1012.5 607 C 1059.7203504 607 1098 614.6111584 1098 624 C 1098 633.3888416 1059.7203504 641 1012.5 641 C 965.2796496 641 927 633.3888416 927 624 Z" opacity="0.2"/></g><g transform="translate(-6,-30) scale(1,1)"><path fill="#ffffff" stroke="none" d="M 920 617 C 920 607.6111584 958.2796496 600 1005.5 600 C 1052.7203504 600 1091 607.6111584 1091 617 C 1091 626.3888416 1052.7203504 634 1005.5 634 C 958.2796496 634 920 626.3888416 920 617 Z"/></g><g transform="translate(-6,-30) scale(1,1)"><path fill="none" stroke="#000000" d="M 920 617 C 920 607.6111584 958.2796496 600 1005.5 600 C 1052.7203504 600 1091 607.6111584 1091 617 C 1091 626.3888416 1052.7203504 634 1005.5 634 C 958.2796496 634 920 626.3888416 920 617 Z" stroke-miterlimit="10"/></g><g transform="translate(-6,-30) scale(1,1)"><g><path fill="none" stroke="none"/><text fill="#000000" stroke="none" font-family="Arial" font-size="13px" font-style="normal" font-weight="bold" text-decoration="none" x="953.8173828125" y="624">Lập phiếu thu tiền</text></g></g><g transform="translate(-6,-30) scale(1,1)"><path fill="none" stroke="#000000" d="M 723 390 L 930 447" stroke-miterlimit="10"/></g><g transform="translate(-6,-30) scale(1,1)"><path fill="none" stroke="#000000" d="M 1191 527 L 1052 483" stroke-miterlimit="10"/></g><g transform="translate(-6,-30) scale(1,1)"><path fill="#FFFFFF" stroke="none" d="M 1073.9184449906547 481.1074437414858 L 1052 483 L 1068.8369204501287 497.16044172178385"/></g><g transform="translate(-6,-30) scale(1,1)"><path fill="none" stroke="#000000" d="M 1073.9184449906547 481.1074437414858 L 1052 483 L 1068.8369204501287 497.16044172178385 L 1073.9184449906547 481.1074437414858" stroke-miterlimit="10"/></g><g transform="translate(-6,-30) scale(1,1)"><path fill="none" stroke="#000000" d="M 1004 599 L 997 483" stroke-miterlimit="10"/></g><g transform="translate(-6,-30) scale(1,1)"><path fill="#FFFFFF" stroke="none" d="M 1006.6280509012515 502.78132037663084 L 997 483 L 989.8205543027449 503.7955658610235"/></g><g transform="translate(-6,-30) scale(1,1)"><path fill="none" stroke="#000000" d="M 1006.6280509012515 502.78132037663084 L 997 483 L 989.8205543027449 503.7955658610235 L 1006.6280509012515 502.78132037663084" stroke-miterlimit="10"/></g><g transform="translate(-6,-30) scale(1,1)"><path fill="#C0C0C0" stroke="none" d="M 367 576 C 367 566.6111584 406.17508 559 454.5 559 C 502.82492 559 542 566.6111584 542 576 C 542 585.3888416 502.82492 593 454.5 593 C 406.17508 593 367 585.3888416 367 576 Z" opacity="0.2"/></g><g transform="translate(-6,-30) scale(1,1)"><path fill="#ffffff" stroke="none" d="M 360 569 C 360 559.6111584 399.17508 552 447.5 552 C 495.82492 552 535 559.6111584 535 569 C 535 578.3888416 495.82492 586 447.5 586 C 399.17508 586 360 578.3888416 360 569 Z"/></g><g transform="translate(-6,-30) scale(1,1)"><path fill="none" stroke="#000000" d="M 360 569 C 360 559.6111584 399.17508 552 447.5 552 C 495.82492 552 535 559.6111584 535 569 C 535 578.3888416 495.82492 586 447.5 586 C 399.17508 586 360 578.3888416 360 569 Z" stroke-miterlimit="10"/></g><g transform="translate(-6,-30) scale(1,1)"><g><path fill="none" stroke="none"/><text fill="#000000" stroke="none" font-family="Arial" font-size="13px" font-style="normal" font-weight="bold" text-decoration="none" x="393.646484375" y="576">Lập báo cáo tháng</text></g></g><g transform="translate(-6,-30) scale(1,1)"><path fill="none" stroke="#000000" d="M 671 402 L 471 551" stroke-miterlimit="10"/></g><g transform="translate(-6,-30) scale(1,1)"><path fill="#C0C0C0" stroke="none" d="M 1319 408 C 1319 398.6111584 1361.7568016 391 1414.5 391 C 1467.2431984 391 1510 398.6111584 1510 408 C 1510 417.3888416 1467.2431984 425 1414.5 425 C 1361.7568016 425 1319 417.3888416 1319 408 Z" opacity="0.2"/></g><g transform="translate(-6,-30) scale(1,1)"><path fill="#ffffff" stroke="none" d="M 1312 401 C 1312 391.6111584 1354.7568016 384 1407.5 384 C 1460.2431984 384 1503 391.6111584 1503 401 C 1503 410.3888416 1460.2431984 418 1407.5 418 C 1354.7568016 418 1312 410.3888416 1312 401 Z"/></g><g transform="translate(-6,-30) scale(1,1)"><path fill="none" stroke="#000000" d="M 1312 401 C 1312 391.6111584 1354.7568016 384 1407.5 384 C 1460.2431984 384 1503 391.6111584 1503 401 C 1503 410.3888416 1460.2431984 418 1407.5 418 C 1354.7568016 418 1312 410.3888416 1312 401 Z" stroke-miterlimit="10"/></g><g transform="translate(-6,-30) scale(1,1)"><g><path fill="none" stroke="none"/><text fill="#000000" stroke="none" font-family="Arial" font-size="13px" font-style="normal" font-weight="bold" text-decoration="none" x="1348.23193359375" y="408">Tạo phiếu xuất hàng</text></g></g><g transform="translate(-6,-30) scale(1,1)"><path fill="#C0C0C0" stroke="none" d="M 1519 456 C 1519 446.6111584 1561.9806592 439 1615 439 C 1668.0193408 439 1711 446.6111584 1711 456 C 1711 465.3888416 1668.0193408 473 1615 473 C 1561.9806592 473 1519 465.3888416 1519 456 Z" opacity="0.2"/></g><g transform="translate(-6,-30) scale(1,1)"><path fill="#ffffff" stroke="none" d="M 1512 449 C 1512 439.6111584 1554.9806592 432 1608 432 C 1661.0193408 432 1704 439.6111584 1704 449 C 1704 458.3888416 1661.0193408 466 1608 466 C 1554.9806592 466 1512 458.3888416 1512 449 Z"/></g><g transform="translate(-6,-30) scale(1,1)"><path fill="none" stroke="#000000" d="M 1512 449 C 1512 439.6111584 1554.9806592 432 1608 432 C 1661.0193408 432 1704 439.6111584 1704 449 C 1704 458.3888416 1661.0193408 466 1608 466 C 1554.9806592 466 1512 458.3888416 1512 449 Z" stroke-miterlimit="10"/></g><g transform="translate(-6,-30) scale(1,1)"><g><path fill="none" stroke="none"/><text fill="#000000" stroke="none" font-family="Arial" font-size="13px" font-style="normal" font-weight="bold" text-decoration="none" x="1548.366943359375" y="456">Xóa phiếu xuất hàng</text></g></g><g transform="translate(-6,-30) scale(1,1)"><path fill="#C0C0C0" stroke="none" d="M 1431 648 C 1431 638.6111584 1474.652232 631 1528.5 631 C 1582.347768 631 1626 638.6111584 1626 648 C 1626 657.3888416 1582.347768 665 1528.5 665 C 1474.652232 665 1431 657.3888416 1431 648 Z" opacity="0.2"/></g><g transform="translate(-6,-30) scale(1,1)"><path fill="#ffffff" stroke="none" d="M 1424 641 C 1424 631.6111584 1467.652232 624 1521.5 624 C 1575.347768 624 1619 631.6111584 1619 641 C 1619 650.3888416 1575.347768 658 1521.5 658 C 1467.652232 658 1424 650.3888416 1424 641 Z"/></g><g transform="translate(-6,-30) scale(1,1)"><path fill="none" stroke="#000000" d="M 1424 641 C 1424 631.6111584 1467.652232 624 1521.5 624 C 1575.347768 624 1619 631.6111584 1619 641 C 1619 650.3888416 1575.347768 658 1521.5 658 C 1467.652232 658 1424 650.3888416 1424 641 Z" stroke-miterlimit="10"/></g><g transform="translate(-6,-30) scale(1,1)"><g><path fill="none" stroke="none"/><text fill="#000000" stroke="none" font-family="Arial" font-size="13px" font-style="normal" font-weight="bold" text-decoration="none" x="1461.130615234375" y="648">Sửa phiếu xuất hàng</text></g></g><g transform="translate(-6,-30) scale(1,1)"><path fill="none" stroke="#000000" d="M 1267 527 L 1387 419" stroke-miterlimit="10" stroke-dasharray="3"/></g><g transform="translate(-6,-30) scale(1,1)"><path fill="none" stroke="#000000" d="M 1382.2621621840278 428.92738096526693 L 1387 419 L 1376.6301243522016 422.66956115212656" stroke-miterlimit="10"/></g><g transform="translate(-6,-30) scale(1,1)"><g><path fill="none" stroke="none"/><text fill="#000000" stroke="none" font-family="Arial" font-size="13px" font-style="normal" font-weight="normal" text-decoration="none" x="1284.5" y="469.5">«include»</text></g></g><g transform="translate(-6,-30) scale(1,1)"><path fill="none" stroke="#000000" d="M 1315 527 L 1540 467" stroke-miterlimit="10" stroke-dasharray="3"/></g><g transform="translate(-6,-30) scale(1,1)"><path fill="none" stroke="#000000" d="M 1531.2651039753523 473.6859248753328 L 1540 467 L 1529.0958329701605 465.5511586058638" stroke-miterlimit="10"/></g><g transform="translate(-6,-30) scale(1,1)"><g><path fill="none" stroke="none"/><text fill="#000000" stroke="none" font-family="Arial" font-size="13px" font-style="normal" font-weight="normal" text-decoration="none" x="1394.5" y="488.5">«include»</text></g></g><g transform="translate(-6,-30) scale(1,1)"><path fill="none" stroke="#000000" d="M 1298 563 L 1470 623" stroke-miterlimit="10" stroke-dasharray="3"/></g><g transform="translate(-6,-30) scale(1,1)"><path fill="none" stroke="#000000" d="M 1459.0179026150977 623.6273252972121 L 1470 623 L 1461.790898495816 615.6780704391531" stroke-miterlimit="10"/></g><g transform="translate(-6,-30) scale(1,1)"><g><path fill="none" stroke="none"/><text fill="#000000" stroke="none" font-family="Arial" font-size="13px" font-style="normal" font-weight="normal" text-decoration="none" x="1370.5" y="587.5">«include»</text></g></g><g transform="translate(-6,-30) scale(1,1)"><path fill="#C0C0C0" stroke="none" d="M 1207 664 C 1207 654.6111584 1245.2796496 647 1292.5 647 C 1339.7203504 647 1378 654.6111584 1378 664 C 1378 673.3888416 1339.7203504 681 1292.5 681 C 1245.2796496 681 1207 673.3888416 1207 664 Z" opacity="0.2"/></g><g transform="translate(-6,-30) scale(1,1)"><path fill="#ffffff" stroke="none" d="M 1200 657 C 1200 647.6111584 1238.2796496 640 1285.5 640 C 1332.7203504 640 1371 647.6111584 1371 657 C 1371 666.3888416 1332.7203504 674 1285.5 674 C 1238.2796496 674 1200 666.3888416 1200 657 Z"/></g><g transform="translate(-6,-30) scale(1,1)"><path fill="none" stroke="#000000" d="M 1200 657 C 1200 647.6111584 1238.2796496 640 1285.5 640 C 1332.7203504 640 1371 647.6111584 1371 657 C 1371 666.3888416 1332.7203504 674 1285.5 674 C 1238.2796496 674 1200 666.3888416 1200 657 Z" stroke-miterlimit="10"/></g><g transform="translate(-6,-30) scale(1,1)"><g><path fill="none" stroke="none"/><text fill="#000000" stroke="none" font-family="Arial" font-size="13px" font-style="normal" font-weight="bold" text-decoration="none" x="1233.4619140625" y="664">Tạo phiếu thu tiền</text></g></g><g transform="translate(-6,-30) scale(1,1)"><path fill="#C0C0C0" stroke="none" d="M 1175 744 C 1175 734.6111584 1213.5035072 727 1261 727 C 1308.4964928 727 1347 734.6111584 1347 744 C 1347 753.3888416 1308.4964928 761 1261 761 C 1213.5035072 761 1175 753.3888416 1175 744 Z" opacity="0.2"/></g><g transform="translate(-6,-30) scale(1,1)"><path fill="#ffffff" stroke="none" d="M 1168 737 C 1168 727.6111584 1206.5035072 720 1254 720 C 1301.4964928 720 1340 727.6111584 1340 737 C 1340 746.3888416 1301.4964928 754 1254 754 C 1206.5035072 754 1168 746.3888416 1168 737 Z"/></g><g transform="translate(-6,-30) scale(1,1)"><path fill="none" stroke="#000000" d="M 1168 737 C 1168 727.6111584 1206.5035072 720 1254 720 C 1301.4964928 720 1340 727.6111584 1340 737 C 1340 746.3888416 1301.4964928 754 1254 754 C 1206.5035072 754 1168 746.3888416 1168 737 Z" stroke-miterlimit="10"/></g><g transform="translate(-6,-30) scale(1,1)"><g><path fill="none" stroke="none"/><text fill="#000000" stroke="none" font-family="Arial" font-size="13px" font-style="normal" font-weight="bold" text-decoration="none" x="1201.596923828125" y="744">Xóa phiếu thu tiền</text></g></g><g transform="translate(-6,-30) scale(1,1)"><path fill="#C0C0C0" stroke="none" d="M 975 776 C 975 766.6111584 1013.9512224 759 1062 759 C 1110.0487776 759 1149 766.6111584 1149 776 C 1149 785.3888416 1110.0487776 793 1062 793 C 1013.9512224 793 975 785.3888416 975 776 Z" opacity="0.2"/></g><g transform="translate(-6,-30) scale(1,1)"><path fill="#ffffff" stroke="none" d="M 968 769 C 968 759.6111584 1006.9512224 752 1055 752 C 1103.0487776 752 1142 759.6111584 1142 769 C 1142 778.3888416 1103.0487776 786 1055 786 C 1006.9512224 786 968 778.3888416 968 769 Z"/></g><g transform="translate(-6,-30) scale(1,1)"><path fill="none" stroke="#000000" d="M 968 769 C 968 759.6111584 1006.9512224 752 1055 752 C 1103.0487776 752 1142 759.6111584 1142 769 C 1142 778.3888416 1103.0487776 786 1055 786 C 1006.9512224 786 968 778.3888416 968 769 Z" stroke-miterlimit="10"/></g><g transform="translate(-6,-30) scale(1,1)"><g><path fill="none" stroke="none"/><text fill="#000000" stroke="none" font-family="Arial" font-size="13px" font-style="normal" font-weight="bold" text-decoration="none" x="1001.860595703125" y="776">Sửa phiếu thu tiền</text></g></g><g transform="translate(-6,-30) scale(1,1)"><path fill="none" stroke="#000000" d="M 1092 629 L 1199 645" stroke-miterlimit="10" stroke-dasharray="3"/></g><g transform="translate(-6,-30) scale(1,1)"><path fill="none" stroke="#000000" d="M 1188.3265343591434 647.6602878065077 L 1199 645 L 1189.571612518699 639.3338276144781" stroke-miterlimit="10"/></g><g transform="translate(-6,-30) scale(1,1)"><g><path fill="none" stroke="none"/><text fill="#000000" stroke="none" font-family="Arial" font-size="13px" font-style="normal" font-weight="normal" text-decoration="none" x="1103.5" y="627.5">«include»</text></g></g><g transform="translate(-6,-30) scale(1,1)"><path fill="none" stroke="#000000" d="M 1042 635 L 1217 719" stroke-miterlimit="10" stroke-dasharray="3"/></g><g transform="translate(-6,-30) scale(1,1)"><path fill="none" stroke="#000000" d="M 1206.016525177721 718.397272177214 L 1217 719 L 1209.6597034028766 710.8073175414729" stroke-miterlimit="10"/></g><g transform="translate(-6,-30) scale(1,1)"><g><path fill="none" stroke="none"/><text fill="#000000" stroke="none" font-family="Arial" font-size="13px" font-style="normal" font-weight="normal" text-decoration="none" x="1134.5" y="684.5">«include»</text></g></g><g transform="translate(-6,-30) scale(1,1)"><path fill="none" stroke="#000000" d="M 1011 635 L 1049 751" stroke-miterlimit="10" stroke-dasharray="3"/></g><g transform="translate(-6,-30) scale(1,1)"><path fill="none" stroke="#000000" d="M 1041.8359339701005 742.652775436156 L 1049 751 L 1049.8366194225707 740.0318612362089" stroke-miterlimit="10"/></g><g transform="translate(-6,-30) scale(1,1)"><g><path fill="none" stroke="none"/><text fill="#000000" stroke="none" font-family="Arial" font-size="13px" font-style="normal" font-weight="normal" text-decoration="none" x="1031.5" y="699.5">«include»</text></g></g><g transform="translate(-6,-30) scale(1,1)"><path fill="#C0C0C0" stroke="none" d="M 519 992 C 519 982.6111584 557.055792 975 604 975 C 650.944208 975 689 982.6111584 689 992 C 689 1001.3888416 650.944208 1009 604 1009 C 557.055792 1009 519 1001.3888416 519 992 Z" opacity="0.2"/></g><g transform="translate(-6,-30) scale(1,1)"><path fill="#ffffff" stroke="none" d="M 512 985 C 512 975.6111584 550.055792 968 597 968 C 643.944208 968 682 975.6111584 682 985 C 682 994.3888416 643.944208 1002 597 1002 C 550.055792 1002 512 994.3888416 512 985 Z"/></g><g transform="translate(-6,-30) scale(1,1)"><path fill="none" stroke="#000000" d="M 512 985 C 512 975.6111584 550.055792 968 597 968 C 643.944208 968 682 975.6111584 682 985 C 682 994.3888416 643.944208 1002 597 1002 C 550.055792 1002 512 994.3888416 512 985 Z" stroke-miterlimit="10"/></g><g transform="translate(-6,-30) scale(1,1)"><g><path fill="none" stroke="none"/><text fill="#000000" stroke="none" font-family="Arial" font-size="13px" font-style="normal" font-weight="bold" text-decoration="none" x="545.688720703125" y="992">Thay đổi quy định</text></g></g><g transform="translate(-6,-30) scale(1,1)"><path fill="#C0C0C0" stroke="none" d="M 807 1096 C 807 1086.6111584 865.8745488 1079 938.5 1079 C 1011.1254512 1079 1070 1086.6111584 1070 1096 C 1070 1105.3888416 1011.1254512 1113 938.5 1113 C 865.8745488 1113 807 1105.3888416 807 1096 Z" opacity="0.2"/></g><g transform="translate(-6,-30) scale(1,1)"><path fill="#ffffff" stroke="none" d="M 800 1089 C 800 1079.6111584 858.8745488 1072 931.5 1072 C 1004.1254512 1072 1063 1079.6111584 1063 1089 C 1063 1098.3888416 1004.1254512 1106 931.5 1106 C 858.8745488 1106 800 1098.3888416 800 1089 Z"/></g><g transform="translate(-6,-30) scale(1,1)"><path fill="none" stroke="#000000" d="M 800 1089 C 800 1079.6111584 858.8745488 1072 931.5 1072 C 1004.1254512 1072 1063 1079.6111584 1063 1089 C 1063 1098.3888416 1004.1254512 1106 931.5 1106 C 858.8745488 1106 800 1098.3888416 800 1089 Z" stroke-miterlimit="10"/></g><g transform="translate(-6,-30) scale(1,1)"><g><path fill="none" stroke="none"/><text fill="#000000" stroke="none" font-family="Arial" font-size="13px" font-style="normal" font-weight="bold" text-decoration="none" x="849.90087890625" y="1096">Thay đổi số lượng loại đại lý</text></g></g><g transform="translate(-6,-30) scale(1,1)"><path fill="#C0C0C0" stroke="none" d="M 831 1000 C 831 990.6111584 911.8125936 983 1011.5 983 C 1111.1874064 983 1192 990.6111584 1192 1000 C 1192 1009.3888416 1111.1874064 1017 1011.5 1017 C 911.8125936 1017 831 1009.3888416 831 1000 Z" opacity="0.2"/></g><g transform="translate(-6,-30) scale(1,1)"><path fill="#ffffff" stroke="none" d="M 824 993 C 824 983.6111584 904.8125936 976 1004.5 976 C 1104.1874064 976 1185 983.6111584 1185 993 C 1185 1002.3888416 1104.1874064 1010 1004.5 1010 C 904.8125936 1010 824 1002.3888416 824 993 Z"/></g><g transform="translate(-6,-30) scale(1,1)"><path fill="none" stroke="#000000" d="M 824 993 C 824 983.6111584 904.8125936 976 1004.5 976 C 1104.1874064 976 1185 983.6111584 1185 993 C 1185 1002.3888416 1104.1874064 1010 1004.5 1010 C 904.8125936 1010 824 1002.3888416 824 993 Z" stroke-miterlimit="10"/></g><g transform="translate(-6,-30) scale(1,1)"><g><path fill="none" stroke="none"/><text fill="#000000" stroke="none" font-family="Arial" font-size="13px" font-style="normal" font-weight="bold" text-decoration="none" x="890.683349609375" y="1000">Thay đổi số đại lý tối đa trong một quận</text></g></g><g transform="translate(-6,-30) scale(1,1)"><path fill="none" stroke="#000000" d="M 600 967 L 690 424" stroke-miterlimit="10"/></g><g transform="translate(-6,-30) scale(1,1)"><path fill="#C0C0C0" stroke="none" d="M 399 1136 C 399 1126.6111584 457.4268336 1119 529.5 1119 C 601.5731664 1119 660 1126.6111584 660 1136 C 660 1145.3888416 601.5731664 1153 529.5 1153 C 457.4268336 1153 399 1145.3888416 399 1136 Z" opacity="0.2"/></g><g transform="translate(-6,-30) scale(1,1)"><path fill="#ffffff" stroke="none" d="M 392 1129 C 392 1119.6111584 450.4268336 1112 522.5 1112 C 594.5731664 1112 653 1119.6111584 653 1129 C 653 1138.3888416 594.5731664 1146 522.5 1146 C 450.4268336 1146 392 1138.3888416 392 1129 Z"/></g><g transform="translate(-6,-30) scale(1,1)"><path fill="none" stroke="#000000" d="M 392 1129 C 392 1119.6111584 450.4268336 1112 522.5 1112 C 594.5731664 1112 653 1119.6111584 653 1129 C 653 1138.3888416 594.5731664 1146 522.5 1146 C 450.4268336 1146 392 1138.3888416 392 1129 Z" stroke-miterlimit="10"/></g><g transform="translate(-6,-30) scale(1,1)"><g><path fill="none" stroke="none"/><text fill="#000000" stroke="none" font-family="Arial" font-size="13px" font-style="normal" font-weight="bold" text-decoration="none" x="440.897705078125" y="1136">Thay đổi số lượng mặt hàng</text></g></g><g transform="translate(-6,-30) scale(1,1)"><path fill="#C0C0C0" stroke="none" d="M 823 912 C 823 902.6111584 861.9512224 895 910 895 C 958.0487776 895 997 902.6111584 997 912 C 997 921.3888416 958.0487776 929 910 929 C 861.9512224 929 823 921.3888416 823 912 Z" opacity="0.2"/></g><g transform="translate(-6,-30) scale(1,1)"><path fill="#ffffff" stroke="none" d="M 816 905 C 816 895.6111584 854.9512224 888 903 888 C 951.0487776 888 990 895.6111584 990 905 C 990 914.3888416 951.0487776 922 903 922 C 854.9512224 922 816 914.3888416 816 905 Z"/></g><g transform="translate(-6,-30) scale(1,1)"><path fill="none" stroke="#000000" d="M 816 905 C 816 895.6111584 854.9512224 888 903 888 C 951.0487776 888 990 895.6111584 990 905 C 990 914.3888416 951.0487776 922 903 922 C 854.9512224 922 816 914.3888416 816 905 Z" stroke-miterlimit="10"/></g><g transform="translate(-6,-30) scale(1,1)"><g><path fill="none" stroke="none"/><text fill="#000000" stroke="none" font-family="Arial" font-size="13px" font-style="normal" font-weight="bold" text-decoration="none" x="850.304931640625" y="912">Thay đổi số lượng</text></g></g><g transform="translate(-6,-30) scale(1,1)"><path fill="#C0C0C0" stroke="none" d="M 711 864 C 711 854.6111584 747.0410736 847 791.5 847 C 835.9589264 847 872 854.6111584 872 864 C 872 873.3888416 835.9589264 881 791.5 881 C 747.0410736 881 711 873.3888416 711 864 Z" opacity="0.2"/></g><g transform="translate(-6,-30) scale(1,1)"><path fill="#ffffff" stroke="none" d="M 704 857 C 704 847.6111584 740.0410736 840 784.5 840 C 828.9589264 840 865 847.6111584 865 857 C 865 866.3888416 828.9589264 874 784.5 874 C 740.0410736 874 704 866.3888416 704 857 Z"/></g><g transform="translate(-6,-30) scale(1,1)"><path fill="none" stroke="#000000" d="M 704 857 C 704 847.6111584 740.0410736 840 784.5 840 C 828.9589264 840 865 847.6111584 865 857 C 865 866.3888416 828.9589264 874 784.5 874 C 740.0410736 874 704 866.3888416 704 857 Z" stroke-miterlimit="10"/></g><g transform="translate(-6,-30) scale(1,1)"><g><path fill="none" stroke="none"/><text fill="#000000" stroke="none" font-family="Arial" font-size="13px" font-style="normal" font-weight="bold" text-decoration="none" x="735.791259765625" y="864">Thay đổi đơn giá</text></g></g><g transform="translate(-6,-30) scale(1,1)"><path fill="#C0C0C0" stroke="none" d="M 591 1176 C 591 1166.6111584 674.2750272 1159 777 1159 C 879.7249728 1159 963 1166.6111584 963 1176 C 963 1185.3888416 879.7249728 1193 777 1193 C 674.2750272 1193 591 1185.3888416 591 1176 Z" opacity="0.2"/></g><g transform="translate(-6,-30) scale(1,1)"><path fill="#ffffff" stroke="none" d="M 584 1169 C 584 1159.6111584 667.2750272 1152 770 1152 C 872.7249728 1152 956 1159.6111584 956 1169 C 956 1178.3888416 872.7249728 1186 770 1186 C 667.2750272 1186 584 1178.3888416 584 1169 Z"/></g><g transform="translate(-6,-30) scale(1,1)"><path fill="none" stroke="#000000" d="M 584 1169 C 584 1159.6111584 667.2750272 1152 770 1152 C 872.7249728 1152 956 1159.6111584 956 1169 C 956 1178.3888416 872.7249728 1186 770 1186 C 667.2750272 1186 584 1178.3888416 584 1169 Z" stroke-miterlimit="10"/></g><g transform="translate(-6,-30) scale(1,1)"><g><path fill="none" stroke="none"/><text fill="#000000" stroke="none" font-family="Arial" font-size="13px" font-style="normal" font-weight="bold" text-decoration="none" x="652.62548828125" y="1176">Thay đổi số tiền nợ tối đa từng loại đại lý</text></g></g><g transform="translate(-6,-30) scale(1,1)"><path fill="none" stroke="#000000" d="M 1311 259 L 1159 319" stroke-miterlimit="10" stroke-dasharray="3"/></g><g transform="translate(-6,-30) scale(1,1)"><path fill="none" stroke="#000000" d="M 1166.9072710341254 311.35310096883177 L 1159 319 L 1169.9984591288978 319.1841108089222" stroke-miterlimit="10"/></g><g transform="translate(-6,-30) scale(1,1)"><g><path fill="none" stroke="none"/><text fill="#000000" stroke="none" font-family="Arial" font-size="13px" font-style="normal" font-weight="normal" text-decoration="none" x="1200.5" y="283.5">«include»</text></g></g><g transform="translate(-6,-30) scale(1,1)"><path fill="none" stroke="#000000" d="M 623 967 L 758 875" stroke-miterlimit="10" stroke-dasharray="3"/></g><g transform="translate(-6,-30) scale(1,1)"><path fill="none" stroke="#000000" d="M 751.972581043239 884.2016422838359 L 758 875 L 747.2314275256687 877.2445148395752" stroke-miterlimit="10"/></g><g transform="translate(-6,-30) scale(1,1)"><g><path fill="none" stroke="none"/><text fill="#000000" stroke="none" font-family="Arial" font-size="13px" font-style="normal" font-weight="normal" text-decoration="none" x="647.5" y="907.5">«include»</text></g></g><g transform="translate(-6,-30) scale(1,1)"><path fill="none" stroke="#000000" d="M 666 967 L 834 923" stroke-miterlimit="10" stroke-dasharray="3"/></g><g transform="translate(-6,-30) scale(1,1)"><path fill="none" stroke="#000000" d="M 825.2354314860837 929.6469796723676 L 834 923 L 823.1023897688955 921.502638570376" stroke-miterlimit="10"/></g><g transform="translate(-6,-30) scale(1,1)"><g><path fill="none" stroke="none"/><text fill="#000000" stroke="none" font-family="Arial" font-size="13px" font-style="normal" font-weight="normal" text-decoration="none" x="715.5" y="944.5">«include»</text></g></g><g transform="translate(-6,-30) scale(1,1)"><path fill="none" stroke="#000000" d="M 683 987 L 823 989" stroke-miterlimit="10" stroke-dasharray="3"/></g><g transform="translate(-6,-30) scale(1,1)"><path fill="none" stroke="#000000" d="M 812.7782321587569 993.063922021856 L 823 989 L 812.8984918238746 984.6457454636101" stroke-miterlimit="10"/></g><g transform="translate(-6,-30) scale(1,1)"><g><path fill="none" stroke="none"/><text fill="#000000" stroke="none" font-family="Arial" font-size="13px" font-style="normal" font-weight="normal" text-decoration="none" x="725.5" y="984.5">«include»</text></g></g><g transform="translate(-6,-30) scale(1,1)"><path fill="none" stroke="#000000" d="M 655 1003 L 873 1071" stroke-miterlimit="10" stroke-dasharray="3"/></g><g transform="translate(-6,-30) scale(1,1)"><path fill="none" stroke="#000000" d="M 862.0448534205129 1071.9923524686076 L 873 1071 L 864.5518424048723 1063.9552407246317" stroke-miterlimit="10"/></g><g transform="translate(-6,-30) scale(1,1)"><g><path fill="none" stroke="none"/><text fill="#000000" stroke="none" font-family="Arial" font-size="13px" font-style="normal" font-weight="normal" text-decoration="none" x="738.5" y="1027.5">«include»</text></g></g><g transform="translate(-6,-30) scale(1,1)"><path fill="none" stroke="#000000" d="M 614 1003 L 753 1151" stroke-miterlimit="10" stroke-dasharray="3"/></g><g transform="translate(-6,-30) scale(1,1)"><path fill="none" stroke="#000000" d="M 742.9742592691584 1146.4740169246952 L 753 1151 L 749.1110840668873 1140.7103774187203" stroke-miterlimit="10"/></g><g transform="translate(-6,-30) scale(1,1)"><g><path fill="none" stroke="none"/><text fill="#000000" stroke="none" font-family="Arial" font-size="13px" font-style="normal" font-weight="normal" text-decoration="none" x="676.5" y="1062.5">«include»</text></g></g><g transform="translate(-6,-30) scale(1,1)"><path fill="none" stroke="#000000" d="M 588 1003 L 531 1111" stroke-miterlimit="10" stroke-dasharray="3"/></g><g transform="translate(-6,-30) scale(1,1)"><path fill="none" stroke="#000000" d="M 532.0206827673036 1100.0474566109726 L 531 1111 L 539.4663494078218 1103.9771140045793" stroke-miterlimit="10"/></g><g transform="translate(-6,-30) scale(1,1)"><g><path fill="none" stroke="none"/><text fill="#000000" stroke="none" font-family="Arial" font-size="13px" font-style="normal" font-weight="normal" text-decoration="none" x="557.5" y="1076.5">«include»</text></g></g><g transform="translate(-6,-30) scale(1,1)"><path fill="#C0C0C0" stroke="none" d="M 31 584 C 31 574.6111584 88.9791184 567 160.5 567 C 232.0208816 567 290 574.6111584 290 584 C 290 593.3888416 232.0208816 601 160.5 601 C 88.9791184 601 31 593.3888416 31 584 Z" opacity="0.2"/></g><g transform="translate(-6,-30) scale(1,1)"><path fill="#ffffff" stroke="none" d="M 24 577 C 24 567.6111584 81.9791184 560 153.5 560 C 225.0208816 560 283 567.6111584 283 577 C 283 586.3888416 225.0208816 594 153.5 594 C 81.9791184 594 24 586.3888416 24 577 Z"/></g><g transform="translate(-6,-30) scale(1,1)"><path fill="none" stroke="#000000" d="M 24 577 C 24 567.6111584 81.9791184 560 153.5 560 C 225.0208816 560 283 567.6111584 283 577 C 283 586.3888416 225.0208816 594 153.5 594 C 81.9791184 594 24 586.3888416 24 577 Z" stroke-miterlimit="10"/></g><g transform="translate(-6,-30) scale(1,1)"><g><path fill="none" stroke="none"/><text fill="#000000" stroke="none" font-family="Arial" font-size="13px" font-style="normal" font-weight="bold" text-decoration="none" x="72.1865234375" y="584">Lập báo cáo doanh số đại lý</text></g></g><g transform="translate(-6,-30) scale(1,1)"><path fill="#C0C0C0" stroke="none" d="M 135 696 C 135 686.6111584 190.9644 679 260 679 C 329.0356 679 385 686.6111584 385 696 C 385 705.3888416 329.0356 713 260 713 C 190.9644 713 135 705.3888416 135 696 Z" opacity="0.2"/></g><g transform="translate(-6,-30) scale(1,1)"><path fill="#ffffff" stroke="none" d="M 128 689 C 128 679.6111584 183.9644 672 253 672 C 322.0356 672 378 679.6111584 378 689 C 378 698.3888416 322.0356 706 253 706 C 183.9644 706 128 698.3888416 128 689 Z"/></g><g transform="translate(-6,-30) scale(1,1)"><path fill="none" stroke="#000000" d="M 128 689 C 128 679.6111584 183.9644 672 253 672 C 322.0356 672 378 679.6111584 378 689 C 378 698.3888416 322.0356 706 253 706 C 183.9644 706 128 698.3888416 128 689 Z" stroke-miterlimit="10"/></g><g transform="translate(-6,-30) scale(1,1)"><g><path fill="none" stroke="none"/><text fill="#000000" stroke="none" font-family="Arial" font-size="13px" font-style="normal" font-weight="bold" text-decoration="none" x="174.654052734375" y="696">Lập báo cáo công nợ đại lý</text></g></g><g transform="translate(-6,-30) scale(1,1)"><path fill="none" stroke="#000000" d="M 284 573 L 359 571" stroke-miterlimit="10"/></g><g transform="translate(-6,-30) scale(1,1)"><path fill="#FFFFFF" stroke="none" d="M 338.90630105502856 579.9578603867695 L 359 571 L 338.45744539248267 563.1257730412968"/></g><g transform="translate(-6,-30) scale(1,1)"><path fill="none" stroke="#000000" d="M 338.90630105502856 579.9578603867695 L 359 571 L 338.45744539248267 563.1257730412968 L 338.90630105502856 579.9578603867695" stroke-miterlimit="10"/></g><g transform="translate(-6,-30) scale(1,1)"><path fill="none" stroke="#000000" d="M 282 671 L 418 587" stroke-miterlimit="10"/></g><g transform="translate(-6,-30) scale(1,1)"><path fill="#FFFFFF" stroke="none" d="M 405.1313763907573 604.8437251268798 L 418 587 L 396.2830899425217 590.5179280202126"/></g><g transform="translate(-6,-30) scale(1,1)"><path fill="none" stroke="#000000" d="M 405.1313763907573 604.8437251268798 L 418 587 L 396.2830899425217 590.5179280202126 L 405.1313763907573 604.8437251268798" stroke-miterlimit="10"/></g><g transform="translate(-6,-30) scale(1,1)"><path fill="#C0C0C0" stroke="none" d="M 1543 544 C 1543 534.6111584 1585.7568016 527 1638.5 527 C 1691.2431984 527 1734 534.6111584 1734 544 C 1734 553.3888416 1691.2431984 561 1638.5 561 C 1585.7568016 561 1543 553.3888416 1543 544 Z" opacity="0.2"/></g><g transform="translate(-6,-30) scale(1,1)"><path fill="#ffffff" stroke="none" d="M 1536 537 C 1536 527.6111584 1578.7568016 520 1631.5 520 C 1684.2431984 520 1727 527.6111584 1727 537 C 1727 546.3888416 1684.2431984 554 1631.5 554 C 1578.7568016 554 1536 546.3888416 1536 537 Z"/></g><g transform="translate(-6,-30) scale(1,1)"><path fill="none" stroke="#000000" d="M 1536 537 C 1536 527.6111584 1578.7568016 520 1631.5 520 C 1684.2431984 520 1727 527.6111584 1727 537 C 1727 546.3888416 1684.2431984 554 1631.5 554 C 1578.7568016 554 1536 546.3888416 1536 537 Z" stroke-miterlimit="10"/></g><g transform="translate(-6,-30) scale(1,1)"><g><path fill="none" stroke="none"/><text fill="#000000" stroke="none" font-family="Arial" font-size="13px" font-style="normal" font-weight="bold" text-decoration="none" x="1572.241455078125" y="544">Tìm phiếu xuất hàng</text></g></g><g transform="translate(-6,-30) scale(1,1)"><path fill="none" stroke="#000000" d="M 1540 623 L 1612 555" stroke-miterlimit="10" stroke-dasharray="3"/></g><g transform="translate(-6,-30) scale(1,1)"><path fill="none" stroke="#000000" d="M 1607.501955667129 565.038306489619 L 1612 555 L 1601.7212477597106 558.9175569405878" stroke-miterlimit="10"/></g><g transform="translate(-6,-30) scale(1,1)"><g><path fill="none" stroke="none"/><text fill="#000000" stroke="none" font-family="Arial" font-size="13px" font-style="normal" font-weight="normal" text-decoration="none" x="1515.5" y="597.5">«include»</text></g></g><g transform="translate(-6,-30) scale(1,1)"><path fill="none" stroke="#000000" d="M 1344 543 L 1535 539" stroke-miterlimit="10" stroke-dasharray="3"/></g><g transform="translate(-6,-30) scale(1,1)"><path fill="none" stroke="#000000" d="M 1524.9276911192806 543.4213791752553 L 1535 539 L 1524.7514148912178 535.0041892852578" stroke-miterlimit="10"/></g><g transform="translate(-6,-30) scale(1,1)"><g><path fill="none" stroke="none"/><text fill="#000000" stroke="none" font-family="Arial" font-size="13px" font-style="normal" font-weight="normal" text-decoration="none" x="1429.5" y="533.5">«include»</text></g></g><g transform="translate(-6,-30) scale(1,1)"><path fill="#C0C0C0" stroke="none" d="M 791 720 C 791 710.6111584 829.2796496 703 876.5 703 C 923.7203504 703 962 710.6111584 962 720 C 962 729.3888416 923.7203504 737 876.5 737 C 829.2796496 737 791 729.3888416 791 720 Z" opacity="0.2"/></g><g transform="translate(-6,-30) scale(1,1)"><path fill="#ffffff" stroke="none" d="M 784 713 C 784 703.6111584 822.2796496 696 869.5 696 C 916.7203504 696 955 703.6111584 955 713 C 955 722.3888416 916.7203504 730 869.5 730 C 822.2796496 730 784 722.3888416 784 713 Z"/></g><g transform="translate(-6,-30) scale(1,1)"><path fill="none" stroke="#000000" d="M 784 713 C 784 703.6111584 822.2796496 696 869.5 696 C 916.7203504 696 955 703.6111584 955 713 C 955 722.3888416 916.7203504 730 869.5 730 C 822.2796496 730 784 722.3888416 784 713 Z" stroke-miterlimit="10"/></g><g transform="translate(-6,-30) scale(1,1)"><g><path fill="none" stroke="none"/><text fill="#000000" stroke="none" font-family="Arial" font-size="13px" font-style="normal" font-weight="bold" text-decoration="none" x="817.471435546875" y="720">Tìm phiếu thu tiền</text></g></g><g transform="translate(-6,-30) scale(1,1)"><path fill="none" stroke="#000000" d="M 980 635 L 895 695" stroke-miterlimit="10" stroke-dasharray="3"/></g><g transform="translate(-6,-30) scale(1,1)"><path fill="none" stroke="#000000" d="M 900.8750206036001 685.7003154404424 L 895 695 L 905.7301369233753 692.5783968934574" stroke-miterlimit="10"/></g><g transform="translate(-6,-30) scale(1,1)"><g><path fill="none" stroke="none"/><text fill="#000000" stroke="none" font-family="Arial" font-size="13px" font-style="normal" font-weight="normal" text-decoration="none" x="934.5" y="676.5">«include»</text></g></g><g transform="translate(-6,-30) scale(1,1)"><path fill="none" stroke="#000000" d="M 995 751 L 929 731" stroke-miterlimit="10" stroke-dasharray="3"/></g><g transform="translate(-6,-30) scale(1,1)"><path fill="none" stroke="#000000" d="M 939.946719132888 729.9186396411629 L 929 731 L 937.5051365732496 737.9758620879696" stroke-miterlimit="10"/></g><g transform="translate(-6,-30) scale(1,1)"><g><path fill="none" stroke="none"/><text fill="#000000" stroke="none" font-family="Arial" font-size="13px" font-style="normal" font-weight="normal" text-decoration="none" x="925.5" y="775.5">«include»</text></g></g><g transform="translate(-6,-30) scale(1,1)"><path fill="#C0C0C0" stroke="none" d="M 143 272 C 143 262.6111584 181.5035072 255 229 255 C 276.4964928 255 315 262.6111584 315 272 C 315 281.3888416 276.4964928 289 229 289 C 181.5035072 289 143 281.3888416 143 272 Z" opacity="0.2"/></g><g transform="translate(-6,-30) scale(1,1)"><path fill="#ffffff" stroke="none" d="M 136 265 C 136 255.6111584 174.5035072 248 222 248 C 269.4964928 248 308 255.6111584 308 265 C 308 274.3888416 269.4964928 282 222 282 C 174.5035072 282 136 274.3888416 136 265 Z"/></g><g transform="translate(-6,-30) scale(1,1)"><path fill="none" stroke="#000000" d="M 136 265 C 136 255.6111584 174.5035072 248 222 248 C 269.4964928 248 308 255.6111584 308 265 C 308 274.3888416 269.4964928 282 222 282 C 174.5035072 282 136 274.3888416 136 265 Z" stroke-miterlimit="10"/></g><g transform="translate(-6,-30) scale(1,1)"><g><path fill="none" stroke="none"/><text fill="#000000" stroke="none" font-family="Arial" font-size="13px" font-style="normal" font-weight="bold" text-decoration="none" x="169.23828125" y="272">Thêm nguồn nhập</text></g></g><g transform="translate(-6,-30) scale(1,1)"><path fill="#C0C0C0" stroke="none" d="M 23 344 C 23 334.6111584 58.145643199999995 327 101.5 327 C 144.8543568 327 180 334.6111584 180 344 C 180 353.3888416 144.8543568 361 101.5 361 C 58.145643199999995 361 23 353.3888416 23 344 Z" opacity="0.2"/></g><g transform="translate(-6,-30) scale(1,1)"><path fill="#ffffff" stroke="none" d="M 16 337 C 16 327.6111584 51.145643199999995 320 94.5 320 C 137.8543568 320 173 327.6111584 173 337 C 173 346.3888416 137.8543568 354 94.5 354 C 51.145643199999995 354 16 346.3888416 16 337 Z"/></g><g transform="translate(-6,-30) scale(1,1)"><path fill="none" stroke="#000000" d="M 16 337 C 16 327.6111584 51.145643199999995 320 94.5 320 C 137.8543568 320 173 327.6111584 173 337 C 173 346.3888416 137.8543568 354 94.5 354 C 51.145643199999995 354 16 346.3888416 16 337 Z" stroke-miterlimit="10"/></g><g transform="translate(-6,-30) scale(1,1)"><g><path fill="none" stroke="none"/><text fill="#000000" stroke="none" font-family="Arial" font-size="13px" font-style="normal" font-weight="bold" text-decoration="none" x="46.787841796875" y="344">Xóa nguồn nhập</text></g></g><g transform="translate(-6,-30) scale(1,1)"><path fill="#C0C0C0" stroke="none" d="M 95 432 C 95 422.6111584 137.532944 415 190 415 C 242.467056 415 285 422.6111584 285 432 C 285 441.3888416 242.467056 449 190 449 C 137.532944 449 95 441.3888416 95 432 Z" opacity="0.2"/></g><g transform="translate(-6,-30) scale(1,1)"><path fill="#ffffff" stroke="none" d="M 88 425 C 88 415.6111584 130.532944 408 183 408 C 235.467056 408 278 415.6111584 278 425 C 278 434.3888416 235.467056 442 183 442 C 130.532944 442 88 434.3888416 88 425 Z"/></g><g transform="translate(-6,-30) scale(1,1)"><path fill="none" stroke="#000000" d="M 88 425 C 88 415.6111584 130.532944 408 183 408 C 235.467056 408 278 415.6111584 278 425 C 278 434.3888416 235.467056 442 183 442 C 130.532944 442 88 434.3888416 88 425 Z" stroke-miterlimit="10"/></g><g transform="translate(-6,-30) scale(1,1)"><g><path fill="none" stroke="none"/><text fill="#000000" stroke="none" font-family="Arial" font-size="13px" font-style="normal" font-weight="bold" text-decoration="none" x="124.322265625" y="432">Tra cứu nguồn nhập</text></g></g><g transform="translate(-6,-30) scale(1,1)"><path fill="#C0C0C0" stroke="none" d="M 383 464 C 383 454.6111584 418.5933584 447 462.5 447 C 506.4066416 447 542 454.6111584 542 464 C 542 473.3888416 506.4066416 481 462.5 481 C 418.5933584 481 383 473.3888416 383 464 Z" opacity="0.2"/></g><g transform="translate(-6,-30) scale(1,1)"><path fill="#ffffff" stroke="none" d="M 376 457 C 376 447.6111584 411.5933584 440 455.5 440 C 499.4066416 440 535 447.6111584 535 457 C 535 466.3888416 499.4066416 474 455.5 474 C 411.5933584 474 376 466.3888416 376 457 Z"/></g><g transform="translate(-6,-30) scale(1,1)"><path fill="none" stroke="#000000" d="M 376 457 C 376 447.6111584 411.5933584 440 455.5 440 C 499.4066416 440 535 447.6111584 535 457 C 535 466.3888416 499.4066416 474 455.5 474 C 411.5933584 474 376 466.3888416 376 457 Z" stroke-miterlimit="10"/></g><g transform="translate(-6,-30) scale(1,1)"><g><path fill="none" stroke="none"/><text fill="#000000" stroke="none" font-family="Arial" font-size="13px" font-style="normal" font-weight="bold" text-decoration="none" x="407.051513671875" y="464">Sửa nguồn nhập</text></g></g><g transform="translate(-6,-30) scale(1,1)"><path fill="none" stroke="#000000" d="M 369 327 L 265 283" stroke-miterlimit="10" stroke-dasharray="3"/></g><g transform="translate(-6,-30) scale(1,1)"><path fill="none" stroke="#000000" d="M 275.99968718701064 283.0829565423187 L 265 283 L 272.7192942672487 290.8366125344833" stroke-miterlimit="10"/></g><g transform="translate(-6,-30) scale(1,1)"><g><path fill="none" stroke="none"/><text fill="#000000" stroke="none" font-family="Arial" font-size="13px" font-style="normal" font-weight="normal" text-decoration="none" x="243.5" y="306.5">«include»</text></g></g><g transform="translate(-6,-30) scale(1,1)"><path fill="none" stroke="#000000" d="M 271 341 L 174 339" stroke-miterlimit="10" stroke-dasharray="3"/></g><g transform="translate(-6,-30) scale(1,1)"><path fill="none" stroke="#000000" d="M 184.2472910804143 335.0008719058698 L 174 339 L 184.07373960594646 343.4181184175603" stroke-miterlimit="10"/></g><g transform="translate(-6,-30) scale(1,1)"><g><path fill="none" stroke="none"/><text fill="#000000" stroke="none" font-family="Arial" font-size="13px" font-style="normal" font-weight="normal" text-decoration="none" x="192.5" y="358.5">«include»</text></g></g><g transform="translate(-6,-30) scale(1,1)"><path fill="none" stroke="#000000" d="M 360 363 L 235 407" stroke-miterlimit="10" stroke-dasharray="3"/></g><g transform="translate(-6,-30) scale(1,1)"><path fill="none" stroke="#000000" d="M 243.18844386317699 399.6549753506473 L 235 407 L 245.98382092055746 407.5963874454782" stroke-miterlimit="10"/></g><g transform="translate(-6,-30) scale(1,1)"><g><path fill="none" stroke="none"/><text fill="#000000" stroke="none" font-family="Arial" font-size="13px" font-style="normal" font-weight="normal" text-decoration="none" x="286.5" y="401.5">«include»</text></g></g><g transform="translate(-6,-30) scale(1,1)"><path fill="none" stroke="#000000" d="M 419 363 L 448 439" stroke-miterlimit="10" stroke-dasharray="3"/></g><g transform="translate(-6,-30) scale(1,1)"><path fill="none" stroke="#000000" d="M 440.4440182004306 431.00580591650566 L 448 439 L 448.3098628775626 428.0043651844421" stroke-miterlimit="10"/></g><g transform="translate(-6,-30) scale(1,1)"><g><path fill="none" stroke="none"/><text fill="#000000" stroke="none" font-family="Arial" font-size="13px" font-style="normal" font-weight="normal" text-decoration="none" x="438.5" y="414.5">«include»</text></g></g><g transform="translate(-6,-30) scale(1,1)"><path fill="none" stroke="#000000" d="M 375 448 L 279 436" stroke-miterlimit="10" stroke-dasharray="3"/></g><g transform="translate(-6,-30) scale(1,1)"><path fill="none" stroke="#000000" d="M 289.60632384707066 433.0835133377538 L 279 436 L 288.56207101183867 441.43753601960987" stroke-miterlimit="10"/></g><g transform="translate(-6,-30) scale(1,1)"><g><path fill="none" stroke="none"/><text fill="#000000" stroke="none" font-family="Arial" font-size="13px" font-style="normal" font-weight="normal" text-decoration="none" x="309.5" y="459.5">«include»</text></g></g><g transform="translate(-6,-30) scale(1,1)"><path fill="#C0C0C0" stroke="none" d="M 231 160 C 231 150.6111584 265.2502128 143 307.5 143 C 349.7497872 143 384 150.6111584 384 160 C 384 169.3888416 349.7497872 177 307.5 177 C 265.2502128 177 231 169.3888416 231 160 Z" opacity="0.2"/></g><g transform="translate(-6,-30) scale(1,1)"><path fill="#ffffff" stroke="none" d="M 224 153 C 224 143.6111584 258.2502128 136 300.5 136 C 342.7497872 136 377 143.6111584 377 153 C 377 162.3888416 342.7497872 170 300.5 170 C 258.2502128 170 224 162.3888416 224 153 Z"/></g><g transform="translate(-6,-30) scale(1,1)"><path fill="none" stroke="#000000" d="M 224 153 C 224 143.6111584 258.2502128 136 300.5 136 C 342.7497872 136 377 143.6111584 377 153 C 377 162.3888416 342.7497872 170 300.5 170 C 258.2502128 170 224 162.3888416 224 153 Z" stroke-miterlimit="10"/></g><g transform="translate(-6,-30) scale(1,1)"><g><path fill="none" stroke="none"/><text fill="#000000" stroke="none" font-family="Arial" font-size="13px" font-style="normal" font-weight="bold" text-decoration="none" x="253.53369140625" y="160">Thêm sản phẩm</text></g></g><g transform="translate(-6,-30) scale(1,1)"><path fill="#C0C0C0" stroke="none" d="M 743 88 C 743 78.6111584 773.6684912 71 811.5 71 C 849.3315088 71 880 78.6111584 880 88 C 880 97.3888416 849.3315088 105 811.5 105 C 773.6684912 105 743 97.3888416 743 88 Z" opacity="0.2"/></g><g transform="translate(-6,-30) scale(1,1)"><path fill="#ffffff" stroke="none" d="M 736 81 C 736 71.6111584 766.6684912 64 804.5 64 C 842.3315088 64 873 71.6111584 873 81 C 873 90.3888416 842.3315088 98 804.5 98 C 766.6684912 98 736 90.3888416 736 81 Z"/></g><g transform="translate(-6,-30) scale(1,1)"><path fill="none" stroke="#000000" d="M 736 81 C 736 71.6111584 766.6684912 64 804.5 64 C 842.3315088 64 873 71.6111584 873 81 C 873 90.3888416 842.3315088 98 804.5 98 C 766.6684912 98 736 90.3888416 736 81 Z" stroke-miterlimit="10"/></g><g transform="translate(-6,-30) scale(1,1)"><g><path fill="none" stroke="none"/><text fill="#000000" stroke="none" font-family="Arial" font-size="13px" font-style="normal" font-weight="bold" text-decoration="none" x="762.583251953125" y="88">Xóa sản phẩm</text></g></g><g transform="translate(-6,-30) scale(1,1)"><path fill="#C0C0C0" stroke="none" d="M 591 64 C 591 54.6111584 622.1162064 47 660.5 47 C 698.8837936 47 730 54.6111584 730 64 C 730 73.3888416 698.8837936 81 660.5 81 C 622.1162064 81 591 73.3888416 591 64 Z" opacity="0.2"/></g><g transform="translate(-6,-30) scale(1,1)"><path fill="#ffffff" stroke="none" d="M 584 57 C 584 47.6111584 615.1162064 40 653.5 40 C 691.8837936 40 723 47.6111584 723 57 C 723 66.3888416 691.8837936 74 653.5 74 C 615.1162064 74 584 66.3888416 584 57 Z"/></g><g transform="translate(-6,-30) scale(1,1)"><path fill="none" stroke="#000000" d="M 584 57 C 584 47.6111584 615.1162064 40 653.5 40 C 691.8837936 40 723 47.6111584 723 57 C 723 66.3888416 691.8837936 74 653.5 74 C 615.1162064 74 584 66.3888416 584 57 Z" stroke-miterlimit="10"/></g><g transform="translate(-6,-30) scale(1,1)"><g><path fill="none" stroke="none"/><text fill="#000000" stroke="none" font-family="Arial" font-size="13px" font-style="normal" font-weight="bold" text-decoration="none" x="610.846923828125" y="64">Sửa sản phẩm</text></g></g><g transform="translate(-6,-30) scale(1,1)"><path fill="#C0C0C0" stroke="none" d="M 295 64 C 295 54.6111584 333.27964959999997 47 380.5 47 C 427.72035040000003 47 466 54.6111584 466 64 C 466 73.3888416 427.72035040000003 81 380.5 81 C 333.27964959999997 81 295 73.3888416 295 64 Z" opacity="0.2"/></g><g transform="translate(-6,-30) scale(1,1)"><path fill="#ffffff" stroke="none" d="M 288 57 C 288 47.6111584 326.27964959999997 40 373.5 40 C 420.72035040000003 40 459 47.6111584 459 57 C 459 66.3888416 420.72035040000003 74 373.5 74 C 326.27964959999997 74 288 66.3888416 288 57 Z"/></g><g transform="translate(-6,-30) scale(1,1)"><path fill="none" stroke="#000000" d="M 288 57 C 288 47.6111584 326.27964959999997 40 373.5 40 C 420.72035040000003 40 459 47.6111584 459 57 C 459 66.3888416 420.72035040000003 74 373.5 74 C 326.27964959999997 74 288 66.3888416 288 57 Z" stroke-miterlimit="10"/></g><g transform="translate(-6,-30) scale(1,1)"><g><path fill="none" stroke="none"/><text fill="#000000" stroke="none" font-family="Arial" font-size="13px" font-style="normal" font-weight="bold" text-decoration="none" x="320.61767578125" y="64">Tra cứu sản phẩm</text></g></g><g transform="translate(-6,-30) scale(1,1)"><path fill="none" stroke="#000000" d="M 235 247 L 287 171" stroke-miterlimit="10" stroke-dasharray="3"/></g><g transform="translate(-6,-30) scale(1,1)"><path fill="none" stroke="#000000" d="M 284.7354465389086 181.76437632293943 L 287 171 L 277.78715539810844 177.0102823844972" stroke-miterlimit="10"/></g><g transform="translate(-6,-30) scale(1,1)"><g><path fill="none" stroke="none"/><text fill="#000000" stroke="none" font-family="Arial" font-size="13px" font-style="normal" font-weight="normal" text-decoration="none" x="202.5" y="218.5">«extend»</text></g></g><g transform="translate(-6,-30) scale(1,1)"><path fill="none" stroke="#000000" d="M 508 199 L 378 170" stroke-miterlimit="10" stroke-dasharray="3"/></g><g transform="translate(-6,-30) scale(1,1)"><path fill="none" stroke="#000000" d="M 388.8353917590356 168.10413992388064 L 378 170 L 387.00235450563173 176.32120347362206" stroke-miterlimit="10"/></g><g transform="translate(-6,-30) scale(1,1)"><g><path fill="none" stroke="none"/><text fill="#000000" stroke="none" font-family="Arial" font-size="13px" font-style="normal" font-weight="normal" text-decoration="none" x="409.5" y="199.5">«include»</text></g></g><g transform="translate(-6,-30) scale(1,1)"><path fill="none" stroke="#000000" d="M 565 199 L 397 75" stroke-miterlimit="10" stroke-dasharray="3"/></g><g transform="translate(-6,-30) scale(1,1)"><path fill="none" stroke="#000000" d="M 407.6764565576891 77.64825893216239 L 397 75 L 402.67679298171566 84.4219966802554" stroke-miterlimit="10"/></g><g transform="translate(-6,-30) scale(1,1)"><g><path fill="none" stroke="none"/><text fill="#000000" stroke="none" font-family="Arial" font-size="13px" font-style="normal" font-weight="normal" text-decoration="none" x="433.5" y="149.5">«include»</text></g></g><g transform="translate(-6,-30) scale(1,1)"><path fill="none" stroke="#000000" d="M 596 199 L 646 75" stroke-miterlimit="10" stroke-dasharray="3"/></g><g transform="translate(-6,-30) scale(1,1)"><path fill="none" stroke="#000000" d="M 646.1035627434837 85.99951247820384 L 646 75 L 638.2954000551116 82.85105978127962" stroke-miterlimit="10"/></g><g transform="translate(-6,-30) scale(1,1)"><g><path fill="none" stroke="none"/><text fill="#000000" stroke="none" font-family="Arial" font-size="13px" font-style="normal" font-weight="normal" text-decoration="none" x="559.5" y="148.5">«include»</text></g></g><g transform="translate(-6,-30) scale(1,1)"><path fill="none" stroke="#000000" d="M 617 199 L 776 99" stroke-miterlimit="10" stroke-dasharray="3"/></g><g transform="translate(-6,-30) scale(1,1)"><path fill="none" stroke="#000000" d="M 769.6384047459507 107.97385679759027 L 776 99 L 765.1561978617245 100.84714785167064" stroke-miterlimit="10"/></g><g transform="translate(-6,-30) scale(1,1)"><g><path fill="none" stroke="none"/><text fill="#000000" stroke="none" font-family="Arial" font-size="13px" font-style="normal" font-weight="normal" text-decoration="none" x="652.5" y="129.5">«include»</text></g></g><g transform="translate(-6,-30) scale(1,1)"><path fill="none" stroke="#000000" d="M 583 57 L 460 57" stroke-miterlimit="10" stroke-dasharray="3"/></g><g transform="translate(-6,-30) scale(1,1)"><path fill="none" stroke="#000000" d="M 470.16267485762415 52.790482243984016 L 460 57 L 470.16267485762415 61.209517756015984" stroke-miterlimit="10"/></g><g transform="translate(-6,-30) scale(1,1)"><g><path fill="none" stroke="none"/><text fill="#000000" stroke="none" font-family="Arial" font-size="13px" font-style="normal" font-weight="normal" text-decoration="none" x="491.5" y="76.5">«include»</text></g></g></g></svg>