<svg version="1.1" xmlns="http://www.w3.org/2000/svg" xmlns:xlink="http://www.w3.org/1999/xlink" width="976.4169921875" height="744"><defs/><g><g transform="translate(2,-22) scale(1,1)"><rect fill="#C0C0C0" stroke="none" x="311" y="407" width="179.61865234375" height="220" opacity="0.2"/></g><g transform="translate(2,-22) scale(1,1)"><rect fill="#ffffff" stroke="none" x="304" y="400" width="179.61865234375" height="220"/></g><g transform="translate(2,-22) scale(1,1)"><path fill="none" stroke="#000000" d="M 304 400 L 483.61865234375 400 L 483.61865234375 620 L 304 620 L 304 400 Z Z" stroke-miterlimit="10"/></g><g transform="translate(2,-22) scale(1,1)"><path fill="none" stroke="#000000" d="M 304 425 L 483.61865234375 425" stroke-miterlimit="10"/></g><g transform="translate(2,-22) scale(1,1)"><path fill="none" stroke="#000000" d="M 304 568 L 483.61865234375 568" stroke-miterlimit="10"/></g><g transform="translate(2,-22) scale(1,1)"><g><path fill="none" stroke="none"/><text fill="#000000" stroke="none" font-family="Arial" font-size="13px" font-style="normal" font-weight="bold" text-decoration="none" x="377.432373046875" y="419.5">DaiLy</text></g></g><g transform="translate(2,-22) scale(1,1)"><g><path fill="none" stroke="none"/><text fill="#000000" stroke="none" font-family="Arial" font-size="13px" font-style="normal" font-weight="normal" text-decoration="none" x="309" y="442.5">-ID</text></g></g><g transform="translate(2,-22) scale(1,1)"><g><path fill="none" stroke="none"/><text fill="#000000" stroke="none" font-family="Arial" font-size="13px" font-style="normal" font-weight="normal" text-decoration="none" x="309" y="457.5">-Ten</text></g></g><g transform="translate(2,-22) scale(1,1)"><g><path fill="none" stroke="none"/><text fill="#000000" stroke="none" font-family="Arial" font-size="13px" font-style="normal" font-weight="normal" text-decoration="none" x="309" y="472.5">-HinhAnh</text></g></g><g transform="translate(2,-22) scale(1,1)"><g><path fill="none" stroke="none"/><text fill="#000000" stroke="none" font-family="Arial" font-size="13px" font-style="normal" font-weight="normal" text-decoration="none" x="309" y="487.5">-DienThoai</text></g></g><g transform="translate(2,-22) scale(1,1)"><g><path fill="none" stroke="none"/><text fill="#000000" stroke="none" font-family="Arial" font-size="13px" font-style="normal" font-weight="normal" text-decoration="none" x="309" y="502.5">-NgayTiepNhan</text></g></g><g transform="translate(2,-22) scale(1,1)"><g><path fill="none" stroke="none"/><text fill="#000000" stroke="none" font-family="Arial" font-size="13px" font-style="normal" font-weight="normal" text-decoration="none" x="309" y="517.5">-DiaChi</text></g></g><g transform="translate(2,-22) scale(1,1)"><g><path fill="none" stroke="none"/><text fill="#000000" stroke="none" font-family="Arial" font-size="13px" font-style="normal" font-weight="normal" text-decoration="none" x="309" y="532.5">-Quan</text></g></g><g transform="translate(2,-22) scale(1,1)"><g><path fill="none" stroke="none"/><text fill="#000000" stroke="none" font-family="Arial" font-size="13px" font-style="normal" font-weight="normal" text-decoration="none" x="309" y="547.5">-Email</text></g></g><g transform="translate(2,-22) scale(1,1)"><g><path fill="none" stroke="none"/><text fill="#000000" stroke="none" font-family="Arial" font-size="13px" font-style="normal" font-weight="normal" text-decoration="none" x="309" y="562.5">-IsRemove</text></g></g><g transform="translate(2,-22) scale(1,1)"><g><path fill="none" stroke="none"/><text fill="#000000" stroke="none" font-family="Arial" font-size="13px" font-style="normal" font-weight="normal" text-decoration="none" x="309" y="585.5">+TimKiemDaiLy(Key_Search)</text><path fill="none" stroke="#000000" d="M 309 585.5 L 479.61865234375 585.5" stroke-miterlimit="10"/></g></g><g transform="translate(2,-22) scale(1,1)"><g><path fill="none" stroke="none"/><text fill="#000000" stroke="none" font-family="Arial" font-size="13px" font-style="normal" font-weight="normal" text-decoration="none" x="309" y="600.5">+LocDaiLy()</text><path fill="none" stroke="#000000" d="M 309 600.5 L 378.9638671875 600.5" stroke-miterlimit="10"/></g></g><g transform="translate(2,-22) scale(1,1)"><g><path fill="none" stroke="none"/><text fill="#000000" stroke="none" font-family="Arial" font-size="13px" font-style="normal" font-weight="normal" text-decoration="none" x="309" y="615.5">+ThemDaiLy()</text></g></g><g transform="translate(2,-22) scale(1,1)"><rect fill="#C0C0C0" stroke="none" x="591" y="471" width="141.615234375" height="85" opacity="0.2"/></g><g transform="translate(2,-22) scale(1,1)"><rect fill="#ffffff" stroke="none" x="584" y="464" width="141.615234375" height="85"/></g><g transform="translate(2,-22) scale(1,1)"><path fill="none" stroke="#000000" d="M 584 464 L 725.615234375 464 L 725.615234375 549 L 584 549 L 584 464 Z Z" stroke-miterlimit="10"/></g><g transform="translate(2,-22) scale(1,1)"><path fill="none" stroke="#000000" d="M 584 489 L 725.615234375 489" stroke-miterlimit="10"/></g><g transform="translate(2,-22) scale(1,1)"><path fill="none" stroke="#000000" d="M 584 512 L 725.615234375 512" stroke-miterlimit="10"/></g><g transform="translate(2,-22) scale(1,1)"><g><path fill="none" stroke="none"/><text fill="#000000" stroke="none" font-family="Arial" font-size="13px" font-style="italic" font-weight="bold" text-decoration="none" x="621.682373046875" y="483.5">PhieuDaiLy</text></g></g><g transform="translate(2,-22) scale(1,1)"><g><path fill="none" stroke="none"/><text fill="#000000" stroke="none" font-family="Arial" font-size="13px" font-style="normal" font-weight="normal" text-decoration="none" x="589" y="506.5">#ID</text></g></g><g transform="translate(2,-22) scale(1,1)"><g><path fill="none" stroke="none"/><text fill="#000000" stroke="none" font-family="Arial" font-size="13px" font-style="italic" font-weight="normal" text-decoration="none" x="589" y="529.5">+TimPhieu()</text><path fill="none" stroke="#000000" d="M 589 529.5 L 660.04296875 529.5" stroke-miterlimit="10"/></g></g><g transform="translate(2,-22) scale(1,1)"><g><path fill="none" stroke="none"/><text fill="#000000" stroke="none" font-family="Arial" font-size="13px" font-style="normal" font-weight="normal" text-decoration="none" x="589" y="544.5">+LapBaoCaoCongNo()</text><path fill="none" stroke="#000000" d="M 589 544.5 L 721.615234375 544.5" stroke-miterlimit="10"/></g></g><g transform="translate(2,-22) scale(1,1)"><rect fill="#C0C0C0" stroke="none" x="759" y="303" width="212.4169921875" height="115" opacity="0.2"/></g><g transform="translate(2,-22) scale(1,1)"><rect fill="#ffffff" stroke="none" x="752" y="296" width="212.4169921875" height="115"/></g><g transform="translate(2,-22) scale(1,1)"><path fill="none" stroke="#000000" d="M 752 296 L 964.4169921875 296 L 964.4169921875 411 L 752 411 L 752 296 Z Z" stroke-miterlimit="10"/></g><g transform="translate(2,-22) scale(1,1)"><path fill="none" stroke="#000000" d="M 752 321 L 964.4169921875 321" stroke-miterlimit="10"/></g><g transform="translate(2,-22) scale(1,1)"><path fill="none" stroke="#000000" d="M 752 359 L 964.4169921875 359" stroke-miterlimit="10"/></g><g transform="translate(2,-22) scale(1,1)"><g><path fill="none" stroke="none"/><text fill="#000000" stroke="none" font-family="Arial" font-size="13px" font-style="normal" font-weight="bold" text-decoration="none" x="812.673583984375" y="315.5">PhieuXuatHang</text></g></g><g transform="translate(2,-22) scale(1,1)"><g><path fill="none" stroke="none"/><text fill="#000000" stroke="none" font-family="Arial" font-size="13px" font-style="normal" font-weight="normal" text-decoration="none" x="757" y="338.5">-TongTien</text></g></g><g transform="translate(2,-22) scale(1,1)"><g><path fill="none" stroke="none"/><text fill="#000000" stroke="none" font-family="Arial" font-size="13px" font-style="normal" font-weight="normal" text-decoration="none" x="757" y="353.5">-NgayLapPhieu</text></g></g><g transform="translate(2,-22) scale(1,1)"><g><path fill="none" stroke="none"/><text fill="#000000" stroke="none" font-family="Arial" font-size="13px" font-style="normal" font-weight="normal" text-decoration="none" x="757" y="376.5">+TimPhieu()</text><path fill="none" stroke="#000000" d="M 757 376.5 L 827.6748046875 376.5" stroke-miterlimit="10"/></g></g><g transform="translate(2,-22) scale(1,1)"><g><path fill="none" stroke="none"/><text fill="#000000" stroke="none" font-family="Arial" font-size="13px" font-style="normal" font-weight="normal" text-decoration="none" x="757" y="391.5">+LapBaoCaoDoanhSo()</text><path fill="none" stroke="#000000" d="M 757 391.5 L 896.1279296875 391.5" stroke-miterlimit="10"/></g></g><g transform="translate(2,-22) scale(1,1)"><g><path fill="none" stroke="none"/><text fill="#000000" stroke="none" font-family="Arial" font-size="13px" font-style="normal" font-weight="normal" text-decoration="none" x="757" y="406.5">+XuatPhieuXuatHangRaFileExcel()</text></g></g><g transform="translate(2,-22) scale(1,1)"><rect fill="#C0C0C0" stroke="none" x="511" y="87" width="133.134765625" height="190" opacity="0.2"/></g><g transform="translate(2,-22) scale(1,1)"><rect fill="#ffffff" stroke="none" x="504" y="80" width="133.134765625" height="190"/></g><g transform="translate(2,-22) scale(1,1)"><path fill="none" stroke="#000000" d="M 504 80 L 637.134765625 80 L 637.134765625 270 L 504 270 L 504 80 Z Z" stroke-miterlimit="10"/></g><g transform="translate(2,-22) scale(1,1)"><path fill="none" stroke="#000000" d="M 504 105 L 637.134765625 105" stroke-miterlimit="10"/></g><g transform="translate(2,-22) scale(1,1)"><path fill="none" stroke="#000000" d="M 504 233 L 637.134765625 233" stroke-miterlimit="10"/></g><g transform="translate(2,-22) scale(1,1)"><g><path fill="none" stroke="none"/><text fill="#000000" stroke="none" font-family="Arial" font-size="13px" font-style="normal" font-weight="bold" text-decoration="none" x="542.02197265625" y="99.5">SanPham</text></g></g><g transform="translate(2,-22) scale(1,1)"><g><path fill="none" stroke="none"/><text fill="#000000" stroke="none" font-family="Arial" font-size="13px" font-style="normal" font-weight="normal" text-decoration="none" x="509" y="122.5">-ID</text></g></g><g transform="translate(2,-22) scale(1,1)"><g><path fill="none" stroke="none"/><text fill="#000000" stroke="none" font-family="Arial" font-size="13px" font-style="normal" font-weight="normal" text-decoration="none" x="509" y="137.5">-Ten</text></g></g><g transform="translate(2,-22) scale(1,1)"><g><path fill="none" stroke="none"/><text fill="#000000" stroke="none" font-family="Arial" font-size="13px" font-style="normal" font-weight="normal" text-decoration="none" x="509" y="152.5">-GiaNhap</text></g></g><g transform="translate(2,-22) scale(1,1)"><g><path fill="none" stroke="none"/><text fill="#000000" stroke="none" font-family="Arial" font-size="13px" font-style="normal" font-weight="normal" text-decoration="none" x="509" y="167.5">-GiaBan</text></g></g><g transform="translate(2,-22) scale(1,1)"><g><path fill="none" stroke="none"/><text fill="#000000" stroke="none" font-family="Arial" font-size="13px" font-style="normal" font-weight="normal" text-decoration="none" x="509" y="182.5">-SoLuong</text></g></g><g transform="translate(2,-22) scale(1,1)"><g><path fill="none" stroke="none"/><text fill="#000000" stroke="none" font-family="Arial" font-size="13px" font-style="normal" font-weight="normal" text-decoration="none" x="509" y="197.5">-HinhAnh</text></g></g><g transform="translate(2,-22) scale(1,1)"><g><path fill="none" stroke="none"/><text fill="#000000" stroke="none" font-family="Arial" font-size="13px" font-style="normal" font-weight="normal" text-decoration="none" x="509" y="212.5">-TrangThai</text></g></g><g transform="translate(2,-22) scale(1,1)"><g><path fill="none" stroke="none"/><text fill="#000000" stroke="none" font-family="Arial" font-size="13px" font-style="normal" font-weight="normal" text-decoration="none" x="509" y="227.5">-Mota</text></g></g><g transform="translate(2,-22) scale(1,1)"><g><path fill="none" stroke="none"/><text fill="#000000" stroke="none" font-family="Arial" font-size="13px" font-style="normal" font-weight="normal" text-decoration="none" x="509" y="250.5">+SapXepSanPham()</text><path fill="none" stroke="#000000" d="M 509 250.5 L 628.6025390625 250.5" stroke-miterlimit="10"/></g></g><g transform="translate(2,-22) scale(1,1)"><g><path fill="none" stroke="none"/><text fill="#000000" stroke="none" font-family="Arial" font-size="13px" font-style="normal" font-weight="normal" text-decoration="none" x="509" y="265.5">+TimKiemSanPham()</text><path fill="none" stroke="#000000" d="M 509 265.5 L 633.134765625 265.5" stroke-miterlimit="10"/></g></g><g transform="translate(2,-22) scale(1,1)"><rect fill="#C0C0C0" stroke="none" x="759" y="55" width="88.4853515625" height="117" opacity="0.2"/></g><g transform="translate(2,-22) scale(1,1)"><rect fill="#ffffff" stroke="none" x="752" y="48" width="88.4853515625" height="117"/></g><g transform="translate(2,-22) scale(1,1)"><path fill="none" stroke="#000000" d="M 752 48 L 840.4853515625 48 L 840.4853515625 165 L 752 165 L 752 48 Z Z" stroke-miterlimit="10"/></g><g transform="translate(2,-22) scale(1,1)"><path fill="none" stroke="#000000" d="M 752 73 L 840.4853515625 73" stroke-miterlimit="10"/></g><g transform="translate(2,-22) scale(1,1)"><path fill="none" stroke="#000000" d="M 752 156 L 840.4853515625 156" stroke-miterlimit="10"/></g><g transform="translate(2,-22) scale(1,1)"><g><path fill="none" stroke="none"/><text fill="#000000" stroke="none" font-family="Arial" font-size="13px" font-style="normal" font-weight="bold" text-decoration="none" x="761.549560546875" y="67.5">NguonNhap</text></g></g><g transform="translate(2,-22) scale(1,1)"><g><path fill="none" stroke="none"/><text fill="#000000" stroke="none" font-family="Arial" font-size="13px" font-style="normal" font-weight="normal" text-decoration="none" x="757" y="90.5">-ID</text></g></g><g transform="translate(2,-22) scale(1,1)"><g><path fill="none" stroke="none"/><text fill="#000000" stroke="none" font-family="Arial" font-size="13px" font-style="normal" font-weight="normal" text-decoration="none" x="757" y="105.5">-Ten</text></g></g><g transform="translate(2,-22) scale(1,1)"><g><path fill="none" stroke="none"/><text fill="#000000" stroke="none" font-family="Arial" font-size="13px" font-style="normal" font-weight="normal" text-decoration="none" x="757" y="120.5">-DiaChi</text></g></g><g transform="translate(2,-22) scale(1,1)"><g><path fill="none" stroke="none"/><text fill="#000000" stroke="none" font-family="Arial" font-size="13px" font-style="normal" font-weight="normal" text-decoration="none" x="757" y="135.5">-SoDienThoai</text></g></g><g transform="translate(2,-22) scale(1,1)"><g><path fill="none" stroke="none"/><text fill="#000000" stroke="none" font-family="Arial" font-size="13px" font-style="normal" font-weight="normal" text-decoration="none" x="757" y="150.5">-HinhAnh</text></g></g><g transform="translate(2,-22) scale(1,1)"><rect fill="#C0C0C0" stroke="none" x="287" y="55" width="94.96630859375" height="87" opacity="0.2"/></g><g transform="translate(2,-22) scale(1,1)"><rect fill="#ffffff" stroke="none" x="280" y="48" width="94.96630859375" height="87"/></g><g transform="translate(2,-22) scale(1,1)"><path fill="none" stroke="#000000" d="M 280 48 L 374.96630859375 48 L 374.96630859375 135 L 280 135 L 280 48 Z Z" stroke-miterlimit="10"/></g><g transform="translate(2,-22) scale(1,1)"><path fill="none" stroke="#000000" d="M 280 73 L 374.96630859375 73" stroke-miterlimit="10"/></g><g transform="translate(2,-22) scale(1,1)"><path fill="none" stroke="#000000" d="M 280 126 L 374.96630859375 126" stroke-miterlimit="10"/></g><g transform="translate(2,-22) scale(1,1)"><g><path fill="none" stroke="none"/><text fill="#000000" stroke="none" font-family="Arial" font-size="13px" font-style="normal" font-weight="bold" text-decoration="none" x="286.648681640625" y="67.5">LoaiSanPham</text></g></g><g transform="translate(2,-22) scale(1,1)"><g><path fill="none" stroke="none"/><text fill="#000000" stroke="none" font-family="Arial" font-size="13px" font-style="normal" font-weight="normal" text-decoration="none" x="285" y="90.5">-ID</text></g></g><g transform="translate(2,-22) scale(1,1)"><g><path fill="none" stroke="none"/><text fill="#000000" stroke="none" font-family="Arial" font-size="13px" font-style="normal" font-weight="normal" text-decoration="none" x="285" y="105.5">-Ten</text></g></g><g transform="translate(2,-22) scale(1,1)"><g><path fill="none" stroke="none"/><text fill="#000000" stroke="none" font-family="Arial" font-size="13px" font-style="normal" font-weight="normal" text-decoration="none" x="285" y="120.5">-HinhAnh</text></g></g><g transform="translate(2,-22) scale(1,1)"><path fill="none" stroke="#000000" d="M 376 108 L 503 152" stroke-miterlimit="10"/></g><g transform="translate(2,-22) scale(1,1)"><g><path fill="none" stroke="none"/><text fill="#000000" stroke="none" font-family="Arial" font-size="13px" font-style="normal" font-weight="normal" text-decoration="none" x="388.5" y="132.5">1</text></g></g><g transform="translate(2,-22) scale(1,1)"><g><path fill="none" stroke="none"/><text fill="#000000" stroke="none" font-family="Arial" font-size="13px" font-style="normal" font-weight="normal" text-decoration="none" x="467.74365234375" y="162.5">0..*</text></g></g><g transform="translate(2,-22) scale(1,1)"><path fill="none" stroke="#000000" d="M 751 120 L 638 154" stroke-miterlimit="10"/></g><g transform="translate(2,-22) scale(1,1)"><g><path fill="none" stroke="none"/><text fill="#000000" stroke="none" font-family="Arial" font-size="13px" font-style="normal" font-weight="normal" text-decoration="none" x="722.5" y="120.5">1</text></g></g><g transform="translate(2,-22) scale(1,1)"><g><path fill="none" stroke="none"/><text fill="#000000" stroke="none" font-family="Arial" font-size="13px" font-style="normal" font-weight="normal" text-decoration="none" x="650.74365234375" y="132.5">0..*</text></g></g><g transform="translate(2,-22) scale(1,1)"><path fill="none" stroke="#000000" d="M 638 217 L 764 295" stroke-miterlimit="10"/></g><g transform="translate(2,-22) scale(1,1)"><g><path fill="none" stroke="none"/><text fill="#000000" stroke="none" font-family="Arial" font-size="13px" font-style="normal" font-weight="normal" text-decoration="none" x="638.74365234375" y="245.5">1..*</text></g></g><g transform="translate(2,-22) scale(1,1)"><g><path fill="none" stroke="none"/><text fill="#000000" stroke="none" font-family="Arial" font-size="13px" font-style="normal" font-weight="normal" text-decoration="none" x="728.74365234375" y="300.5">0..*</text></g></g><g transform="translate(2,-22) scale(1,1)"><rect fill="#C0C0C0" stroke="none" x="751" y="183" width="148.88330078125" height="72" opacity="0.2"/></g><g transform="translate(2,-22) scale(1,1)"><rect fill="#ffffff" stroke="none" x="744" y="176" width="148.88330078125" height="72"/></g><g transform="translate(2,-22) scale(1,1)"><path fill="none" stroke="#000000" d="M 744 176 L 892.88330078125 176 L 892.88330078125 248 L 744 248 L 744 176 Z Z" stroke-miterlimit="10"/></g><g transform="translate(2,-22) scale(1,1)"><path fill="none" stroke="#000000" d="M 744 201 L 892.88330078125 201" stroke-miterlimit="10"/></g><g transform="translate(2,-22) scale(1,1)"><path fill="none" stroke="#000000" d="M 744 239 L 892.88330078125 239" stroke-miterlimit="10"/></g><g transform="translate(2,-22) scale(1,1)"><g><path fill="none" stroke="none"/><text fill="#000000" stroke="none" font-family="Arial" font-size="13px" font-style="normal" font-weight="bold" text-decoration="none" x="752.559326171875" y="195.5">ChiTietPhieuXuatHang</text></g></g><g transform="translate(2,-22) scale(1,1)"><g><path fill="none" stroke="none"/><text fill="#000000" stroke="none" font-family="Arial" font-size="13px" font-style="normal" font-weight="normal" text-decoration="none" x="749" y="218.5">-SoLuong</text></g></g><g transform="translate(2,-22) scale(1,1)"><g><path fill="none" stroke="none"/><text fill="#000000" stroke="none" font-family="Arial" font-size="13px" font-style="normal" font-weight="normal" text-decoration="none" x="749" y="233.5">-GiaBan</text></g></g><g transform="translate(2,-22) scale(1,1)"><path fill="none" stroke="#000000" d="M 743 240 L 701 256" stroke-miterlimit="10" stroke-dasharray="3"/></g><g transform="translate(2,-22) scale(1,1)"><path fill="none" stroke="#000000" d="M 779 412 L 711 463" stroke-miterlimit="10"/></g><g transform="translate(2,-22) scale(1,1)"><path fill="#FFFFFF" stroke="none" d="M 722.2088584649795 444.06956176122543 L 711 463 L 732.3117010794178 457.5400185804766"/></g><g transform="translate(2,-22) scale(1,1)"><path fill="none" stroke="#000000" d="M 722.2088584649795 444.06956176122543 L 711 463 L 732.3117010794178 457.5400185804766 L 722.2088584649795 444.06956176122543" stroke-miterlimit="10"/></g><g transform="translate(2,-22) scale(1,1)"><rect fill="#C0C0C0" stroke="none" x="535" y="663" width="262.5126953125" height="100" opacity="0.2"/></g><g transform="translate(2,-22) scale(1,1)"><rect fill="#ffffff" stroke="none" x="528" y="656" width="262.5126953125" height="100"/></g><g transform="translate(2,-22) scale(1,1)"><path fill="none" stroke="#000000" d="M 528 656 L 790.5126953125 656 L 790.5126953125 756 L 528 756 L 528 656 Z Z" stroke-miterlimit="10"/></g><g transform="translate(2,-22) scale(1,1)"><path fill="none" stroke="#000000" d="M 528 681 L 790.5126953125 681" stroke-miterlimit="10"/></g><g transform="translate(2,-22) scale(1,1)"><path fill="none" stroke="#000000" d="M 528 719 L 790.5126953125 719" stroke-miterlimit="10"/></g><g transform="translate(2,-22) scale(1,1)"><g><path fill="none" stroke="none"/><text fill="#000000" stroke="none" font-family="Arial" font-size="13px" font-style="normal" font-weight="bold" text-decoration="none" x="619.028076171875" y="675.5">PhieuThuTien</text></g></g><g transform="translate(2,-22) scale(1,1)"><g><path fill="none" stroke="none"/><text fill="#000000" stroke="none" font-family="Arial" font-size="13px" font-style="normal" font-weight="normal" text-decoration="none" x="533" y="698.5">-SoTienThu</text></g></g><g transform="translate(2,-22) scale(1,1)"><g><path fill="none" stroke="none"/><text fill="#000000" stroke="none" font-family="Arial" font-size="13px" font-style="normal" font-weight="normal" text-decoration="none" x="533" y="713.5">-NgayThuTien</text></g></g><g transform="translate(2,-22) scale(1,1)"><g><path fill="none" stroke="none"/><text fill="#000000" stroke="none" font-family="Arial" font-size="13px" font-style="normal" font-weight="normal" text-decoration="none" x="533" y="736.5">+TimPhieu()</text><path fill="none" stroke="#000000" d="M 533 736.5 L 603.6748046875 736.5" stroke-miterlimit="10"/></g></g><g transform="translate(2,-22) scale(1,1)"><g><path fill="none" stroke="none"/><text fill="#000000" stroke="none" font-family="Arial" font-size="13px" font-style="normal" font-weight="normal" text-decoration="none" x="533" y="751.5">+XuatDanhSachPhieuThuTienRaFileExcel()</text><path fill="none" stroke="#000000" d="M 533 751.5 L 786.5126953125 751.5" stroke-miterlimit="10"/></g></g><g transform="translate(2,-22) scale(1,1)"><path fill="none" stroke="#000000" d="M 658 655 L 655 550" stroke-miterlimit="10"/></g><g transform="translate(2,-22) scale(1,1)"><path fill="#FFFFFF" stroke="none" d="M 663.9960886657418 570.0766129792381 L 655 550 L 647.1648861188244 570.5575044805786"/></g><g transform="translate(2,-22) scale(1,1)"><path fill="none" stroke="#000000" d="M 663.9960886657418 570.0766129792381 L 655 550 L 647.1648861188244 570.5575044805786 L 663.9960886657418 570.0766129792381" stroke-miterlimit="10"/></g><g transform="translate(2,-22) scale(1,1)"><path fill="none" stroke="#000000" d="M 485 509 L 583 507" stroke-miterlimit="10"/></g><g transform="translate(2,-22) scale(1,1)"><g><path fill="none" stroke="none"/><text fill="#000000" stroke="none" font-family="Arial" font-size="13px" font-style="normal" font-weight="normal" text-decoration="none" x="502.5" y="527.5">1</text></g></g><g transform="translate(2,-22) scale(1,1)"><g><path fill="none" stroke="none"/><text fill="#000000" stroke="none" font-family="Arial" font-size="13px" font-style="normal" font-weight="normal" text-decoration="none" x="550.74365234375" y="525.5">0..*</text></g></g><g transform="translate(2,-22) scale(1,1)"><rect fill="#C0C0C0" stroke="none" x="15" y="455" width="172.9091796875" height="115" opacity="0.2"/></g><g transform="translate(2,-22) scale(1,1)"><rect fill="#ffffff" stroke="none" x="8" y="448" width="172.9091796875" height="115"/></g><g transform="translate(2,-22) scale(1,1)"><path fill="none" stroke="#000000" d="M 8 448 L 180.9091796875 448 L 180.9091796875 563 L 8 563 L 8 448 Z Z" stroke-miterlimit="10"/></g><g transform="translate(2,-22) scale(1,1)"><path fill="none" stroke="#000000" d="M 8 473 L 180.9091796875 473" stroke-miterlimit="10"/></g><g transform="translate(2,-22) scale(1,1)"><path fill="none" stroke="#000000" d="M 8 526 L 180.9091796875 526" stroke-miterlimit="10"/></g><g transform="translate(2,-22) scale(1,1)"><g><path fill="none" stroke="none"/><text fill="#000000" stroke="none" font-family="Arial" font-size="13px" font-style="normal" font-weight="bold" text-decoration="none" x="65.78857421875" y="467.5">LoaiDaiLy</text></g></g><g transform="translate(2,-22) scale(1,1)"><g><path fill="none" stroke="none"/><text fill="#000000" stroke="none" font-family="Arial" font-size="13px" font-style="normal" font-weight="normal" text-decoration="none" x="13" y="490.5">-Id</text></g></g><g transform="translate(2,-22) scale(1,1)"><g><path fill="none" stroke="none"/><text fill="#000000" stroke="none" font-family="Arial" font-size="13px" font-style="normal" font-weight="normal" text-decoration="none" x="13" y="505.5">-SoTienNoToiDa</text></g></g><g transform="translate(2,-22) scale(1,1)"><g><path fill="none" stroke="none"/><text fill="#000000" stroke="none" font-family="Arial" font-size="13px" font-style="normal" font-weight="normal" text-decoration="none" x="13" y="520.5">-Ten</text></g></g><g transform="translate(2,-22) scale(1,1)"><g><path fill="none" stroke="none"/><text fill="#000000" stroke="none" font-family="Arial" font-size="13px" font-style="normal" font-weight="normal" text-decoration="none" x="13" y="543.5">+ChinhSuaSoTienNoToiDa()</text></g></g><g transform="translate(2,-22) scale(1,1)"><g><path fill="none" stroke="none"/><text fill="#000000" stroke="none" font-family="Arial" font-size="13px" font-style="normal" font-weight="normal" text-decoration="none" x="13" y="558.5">+ThemLoaiDaiLy()</text></g></g><g transform="translate(2,-22) scale(1,1)"><path fill="none" stroke="#000000" d="M 182 506 L 303 508" stroke-miterlimit="10"/></g><g transform="translate(2,-22) scale(1,1)"><g><path fill="none" stroke="none"/><text fill="#000000" stroke="none" font-family="Arial" font-size="13px" font-style="normal" font-weight="normal" text-decoration="none" x="199.5" y="524.5">1</text></g></g><g transform="translate(2,-22) scale(1,1)"><g><path fill="none" stroke="none"/><text fill="#000000" stroke="none" font-family="Arial" font-size="13px" font-style="normal" font-weight="normal" text-decoration="none" x="270.74365234375" y="526.5">0..*</text></g></g><g transform="translate(2,-22) scale(1,1)"><rect fill="#C0C0C0" stroke="none" x="111" y="687" width="185.43310546875" height="72" opacity="0.2"/></g><g transform="translate(2,-22) scale(1,1)"><rect fill="#ffffff" stroke="none" x="104" y="680" width="185.43310546875" height="72"/></g><g transform="translate(2,-22) scale(1,1)"><path fill="none" stroke="#000000" d="M 104 680 L 289.43310546875 680 L 289.43310546875 752 L 104 752 L 104 680 Z Z" stroke-miterlimit="10"/></g><g transform="translate(2,-22) scale(1,1)"><path fill="none" stroke="#000000" d="M 104 705 L 289.43310546875 705" stroke-miterlimit="10"/></g><g transform="translate(2,-22) scale(1,1)"><path fill="none" stroke="#000000" d="M 104 743 L 289.43310546875 743" stroke-miterlimit="10"/></g><g transform="translate(2,-22) scale(1,1)"><g><path fill="none" stroke="none"/><text fill="#000000" stroke="none" font-family="Arial" font-size="13px" font-style="normal" font-weight="bold" text-decoration="none" x="171.427490234375" y="699.5">QuyDinh</text></g></g><g transform="translate(2,-22) scale(1,1)"><g><path fill="none" stroke="none"/><text fill="#000000" stroke="none" font-family="Arial" font-size="13px" font-style="normal" font-weight="normal" text-decoration="none" x="109" y="722.5">+SoLuongLoaiDaiLy</text><path fill="none" stroke="#000000" d="M 109 722.5 L 225.974609375 722.5" stroke-miterlimit="10"/></g></g><g transform="translate(2,-22) scale(1,1)"><g><path fill="none" stroke="none"/><text fill="#000000" stroke="none" font-family="Arial" font-size="13px" font-style="normal" font-weight="normal" text-decoration="none" x="109" y="737.5">+SoDaiLyToiDaTrongMotQuan</text><path fill="none" stroke="#000000" d="M 109 737.5 L 285.43310546875 737.5" stroke-miterlimit="10"/></g></g><g transform="translate(2,-22) scale(1,1)"><path fill="none" stroke="#000000" d="M 303 604 L 231 679" stroke-miterlimit="10" stroke-dasharray="3"/></g><g transform="translate(2,-22) scale(1,1)"><path fill="none" stroke="#000000" d="M 235.0012830616035 668.7535501825791 L 231 679 L 241.0746685352927 674.5840002373208" stroke-miterlimit="10"/></g><g transform="translate(2,-22) scale(1,1)"><rect fill="#C0C0C0" stroke="none" x="247" y="175" width="122.39453125" height="72" opacity="0.2"/></g><g transform="translate(2,-22) scale(1,1)"><rect fill="#ffffff" stroke="none" x="240" y="168" width="122.39453125" height="72"/></g><g transform="translate(2,-22) scale(1,1)"><path fill="none" stroke="#000000" d="M 240 168 L 362.39453125 168 L 362.39453125 240 L 240 240 L 240 168 Z Z" stroke-miterlimit="10"/></g><g transform="translate(2,-22) scale(1,1)"><path fill="none" stroke="#000000" d="M 240 193 L 362.39453125 193" stroke-miterlimit="10"/></g><g transform="translate(2,-22) scale(1,1)"><path fill="none" stroke="#000000" d="M 240 231 L 362.39453125 231" stroke-miterlimit="10"/></g><g transform="translate(2,-22) scale(1,1)"><g><path fill="none" stroke="none"/><text fill="#000000" stroke="none" font-family="Arial" font-size="13px" font-style="normal" font-weight="bold" text-decoration="none" x="247.71826171875" y="187.5">HinhAnhSanPham</text></g></g><g transform="translate(2,-22) scale(1,1)"><g><path fill="none" stroke="none"/><text fill="#000000" stroke="none" font-family="Arial" font-size="13px" font-style="normal" font-weight="normal" text-decoration="none" x="245" y="210.5">-Id</text></g></g><g transform="translate(2,-22) scale(1,1)"><g><path fill="none" stroke="none"/><text fill="#000000" stroke="none" font-family="Arial" font-size="13px" font-style="normal" font-weight="normal" text-decoration="none" x="245" y="225.5">-HinhAnh</text></g></g><g transform="translate(2,-22) scale(1,1)"><path fill="none" stroke="#000000" d="M 363 197 L 503 182" stroke-miterlimit="10"/></g><g transform="translate(2,-22) scale(1,1)"><g><path fill="none" stroke="none"/><text fill="#000000" stroke="none" font-family="Arial" font-size="13px" font-style="normal" font-weight="normal" text-decoration="none" x="375.58544921875" y="213.5">0..*</text></g></g><g transform="translate(2,-22) scale(1,1)"><g><path fill="none" stroke="none"/><text fill="#000000" stroke="none" font-family="Arial" font-size="13px" font-style="normal" font-weight="normal" text-decoration="none" x="478.5" y="202.5">1</text></g></g><g transform="translate(2,-22) scale(1,1)"><rect fill="#C0C0C0" stroke="none" x="279" y="295" width="73.517578125" height="72" opacity="0.2"/></g><g transform="translate(2,-22) scale(1,1)"><rect fill="#ffffff" stroke="none" x="272" y="288" width="73.517578125" height="72"/></g><g transform="translate(2,-22) scale(1,1)"><path fill="none" stroke="#000000" d="M 272 288 L 345.517578125 288 L 345.517578125 360 L 272 360 L 272 288 Z Z" stroke-miterlimit="10"/></g><g transform="translate(2,-22) scale(1,1)"><path fill="none" stroke="#000000" d="M 272 313 L 345.517578125 313" stroke-miterlimit="10"/></g><g transform="translate(2,-22) scale(1,1)"><path fill="none" stroke="#000000" d="M 272 351 L 345.517578125 351" stroke-miterlimit="10"/></g><g transform="translate(2,-22) scale(1,1)"><g><path fill="none" stroke="none"/><text fill="#000000" stroke="none" font-family="Arial" font-size="13px" font-style="normal" font-weight="bold" text-decoration="none" x="278.769287109375" y="307.5">DonViTinh</text></g></g><g transform="translate(2,-22) scale(1,1)"><g><path fill="none" stroke="none"/><text fill="#000000" stroke="none" font-family="Arial" font-size="13px" font-style="normal" font-weight="normal" text-decoration="none" x="277" y="330.5">-Id</text></g></g><g transform="translate(2,-22) scale(1,1)"><g><path fill="none" stroke="none"/><text fill="#000000" stroke="none" font-family="Arial" font-size="13px" font-style="normal" font-weight="normal" text-decoration="none" x="277" y="345.5">-Ten</text></g></g><g transform="translate(2,-22) scale(1,1)"><path fill="none" stroke="#000000" d="M 503 213 L 347 302" stroke-miterlimit="10"/></g><g transform="translate(2,-22) scale(1,1)"><g><path fill="none" stroke="none"/><text fill="#000000" stroke="none" font-family="Arial" font-size="13px" font-style="normal" font-weight="normal" text-decoration="none" x="468.5" y="218.5">0..*</text></g></g><g transform="translate(2,-22) scale(1,1)"><g><path fill="none" stroke="none"/><text fill="#000000" stroke="none" font-family="Arial" font-size="13px" font-style="normal" font-weight="normal" text-decoration="none" x="355.5" y="286.5">1</text></g></g><g transform="translate(2,-22) scale(1,1)"><rect fill="#C0C0C0" stroke="none" x="39" y="39" width="132.90625" height="175" opacity="0.2"/></g><g transform="translate(2,-22) scale(1,1)"><rect fill="#ffffff" stroke="none" x="32" y="32" width="132.90625" height="175"/></g><g transform="translate(2,-22) scale(1,1)"><path fill="none" stroke="#000000" d="M 32 32 L 164.90625 32 L 164.90625 207 L 32 207 L 32 32 Z Z" stroke-miterlimit="10"/></g><g transform="translate(2,-22) scale(1,1)"><path fill="none" stroke="#000000" d="M 32 57 L 164.90625 57" stroke-miterlimit="10"/></g><g transform="translate(2,-22) scale(1,1)"><path fill="none" stroke="#000000" d="M 32 185 L 164.90625 185" stroke-miterlimit="10"/></g><g transform="translate(2,-22) scale(1,1)"><g><path fill="none" stroke="none"/><text fill="#000000" stroke="none" font-family="Arial" font-size="13px" font-style="normal" font-weight="bold" text-decoration="none" x="70.02197265625" y="51.5">NhanVien</text></g></g><g transform="translate(2,-22) scale(1,1)"><g><path fill="none" stroke="none"/><text fill="#000000" stroke="none" font-family="Arial" font-size="13px" font-style="normal" font-weight="normal" text-decoration="none" x="37" y="74.5">-Id</text></g></g><g transform="translate(2,-22) scale(1,1)"><g><path fill="none" stroke="none"/><text fill="#000000" stroke="none" font-family="Arial" font-size="13px" font-style="normal" font-weight="normal" text-decoration="none" x="37" y="89.5">-Ten</text></g></g><g transform="translate(2,-22) scale(1,1)"><g><path fill="none" stroke="none"/><text fill="#000000" stroke="none" font-family="Arial" font-size="13px" font-style="normal" font-weight="normal" text-decoration="none" x="37" y="104.5">-DienThoai</text></g></g><g transform="translate(2,-22) scale(1,1)"><g><path fill="none" stroke="none"/><text fill="#000000" stroke="none" font-family="Arial" font-size="13px" font-style="normal" font-weight="normal" text-decoration="none" x="37" y="119.5">-DiaChi</text></g></g><g transform="translate(2,-22) scale(1,1)"><g><path fill="none" stroke="none"/><text fill="#000000" stroke="none" font-family="Arial" font-size="13px" font-style="normal" font-weight="normal" text-decoration="none" x="37" y="134.5">-Email</text></g></g><g transform="translate(2,-22) scale(1,1)"><g><path fill="none" stroke="none"/><text fill="#000000" stroke="none" font-family="Arial" font-size="13px" font-style="normal" font-weight="normal" text-decoration="none" x="37" y="149.5">-HinhAnh</text></g></g><g transform="translate(2,-22) scale(1,1)"><g><path fill="none" stroke="none"/><text fill="#000000" stroke="none" font-family="Arial" font-size="13px" font-style="normal" font-weight="normal" text-decoration="none" x="37" y="164.5">-VaiTro</text></g></g><g transform="translate(2,-22) scale(1,1)"><g><path fill="none" stroke="none"/><text fill="#000000" stroke="none" font-family="Arial" font-size="13px" font-style="normal" font-weight="normal" text-decoration="none" x="37" y="179.5">-IsRemove</text></g></g><g transform="translate(2,-22) scale(1,1)"><g><path fill="none" stroke="none"/><text fill="#000000" stroke="none" font-family="Arial" font-size="13px" font-style="normal" font-weight="normal" text-decoration="none" x="37" y="202.5">+TimKiemNhanVien()</text><path fill="none" stroke="#000000" d="M 37 202.5 L 160.90625 202.5" stroke-miterlimit="10"/></g></g><g transform="translate(2,-22) scale(1,1)"><rect fill="#C0C0C0" stroke="none" x="47" y="311" width="119.18896484375" height="87" opacity="0.2"/></g><g transform="translate(2,-22) scale(1,1)"><rect fill="#ffffff" stroke="none" x="40" y="304" width="119.18896484375" height="87"/></g><g transform="translate(2,-22) scale(1,1)"><path fill="none" stroke="#000000" d="M 40 304 L 159.18896484375 304 L 159.18896484375 391 L 40 391 L 40 304 Z Z" stroke-miterlimit="10"/></g><g transform="translate(2,-22) scale(1,1)"><path fill="none" stroke="#000000" d="M 40 329 L 159.18896484375 329" stroke-miterlimit="10"/></g><g transform="translate(2,-22) scale(1,1)"><path fill="none" stroke="#000000" d="M 40 367 L 159.18896484375 367" stroke-miterlimit="10"/></g><g transform="translate(2,-22) scale(1,1)"><g><path fill="none" stroke="none"/><text fill="#000000" stroke="none" font-family="Arial" font-size="13px" font-style="normal" font-weight="bold" text-decoration="none" x="72.489990234375" y="323.5">TaiKhoan</text></g></g><g transform="translate(2,-22) scale(1,1)"><g><path fill="none" stroke="none"/><text fill="#000000" stroke="none" font-family="Arial" font-size="13px" font-style="normal" font-weight="normal" text-decoration="none" x="45" y="346.5">-TenDangNhap</text></g></g><g transform="translate(2,-22) scale(1,1)"><g><path fill="none" stroke="none"/><text fill="#000000" stroke="none" font-family="Arial" font-size="13px" font-style="normal" font-weight="normal" text-decoration="none" x="45" y="361.5">-MatKhau</text></g></g><g transform="translate(2,-22) scale(1,1)"><g><path fill="none" stroke="none"/><text fill="#000000" stroke="none" font-family="Arial" font-size="13px" font-style="normal" font-weight="normal" text-decoration="none" x="45" y="384.5">+MaHoaMatKhau()</text></g></g><g transform="translate(2,-22) scale(1,1)"><path fill="none" stroke="#000000" d="M 98 208 L 99 303" stroke-miterlimit="10"/></g><g transform="translate(2,-22) scale(1,1)"><g><path fill="none" stroke="none"/><text fill="#000000" stroke="none" font-family="Arial" font-size="13px" font-style="normal" font-weight="normal" text-decoration="none" x="81.5" y="235.5">1</text></g></g><g transform="translate(2,-22) scale(1,1)"><g><path fill="none" stroke="none"/><text fill="#000000" stroke="none" font-family="Arial" font-size="13px" font-style="normal" font-weight="normal" text-decoration="none" x="82.5" y="287.5">1</text></g></g><g transform="translate(2,-22) scale(1,1)"><path fill="none" stroke="#000000" d="M 123 564 L 178 679" stroke-miterlimit="10" stroke-dasharray="3"/></g><g transform="translate(2,-22) scale(1,1)"><path fill="none" stroke="#000000" d="M 169.81770804107995 671.648122804413 L 178 679 L 177.4128080896498 668.0156836507491" stroke-miterlimit="10"/></g></g></svg>